<?xml version="1.0" encoding="utf-8"?>
<!-- Generator: Adobe Illustrator 15.1.0, SVG Export Plug-In . SVG Version: 6.00 Build 0)  -->
<!DOCTYPE svg PUBLIC "-//W3C//DTD SVG 1.1//EN" "http://www.w3.org/Graphics/SVG/1.1/DTD/svg11.dtd" [
	<!ENTITY ns_flows "http://ns.adobe.com/Flows/1.0/">
	<!ENTITY ns_extend "http://ns.adobe.com/Extensibility/1.0/">
	<!ENTITY ns_ai "http://ns.adobe.com/AdobeIllustrator/10.0/">
	<!ENTITY ns_graphs "http://ns.adobe.com/Graphs/1.0/">
]>
<svg version="1.1" id="Layer_2" xmlns:x="&ns_extend;" xmlns:i="&ns_ai;" xmlns:graph="&ns_graphs;"
	 xmlns="http://www.w3.org/2000/svg" xmlns:xlink="http://www.w3.org/1999/xlink" xmlns:a="http://ns.adobe.com/AdobeSVGViewerExtensions/3.0/"
	 x="0px" y="0px" width="142.573px" height="57.972px" viewBox="0 0 142.573 57.972" enable-background="new 0 0 142.573 57.972"
	 xml:space="preserve">
<path fill="#414042" d="M23.311,46.769c0,0,5.583,6.583,6.333,6.666c0.75,0.084,6.583,0,7.75-1.75s3.333-8.584,3.333-8.584
	s-0.333-1-1.083-0.25s-5.583,4.334-7.417,4.584c-1.833,0.25-4.417,0.25-5.5-0.166c-1.083-0.417-2-1.5-2.75-1.167
	S23.311,46.769,23.311,46.769z"/>
<path fill="#414042" d="M32.306,47.638l0.328-0.078l-0.062-2.844c0,0,1.578,0.25,2.203-0.344s1.062-2.844,1.047-2.875
	s-0.812-0.516-1.531-0.484s-5.781,0.703-6.328,1.203s-0.656,0.781-0.531,1.219s0.438,1.172,0.922,1.562s0.406,0.75,1.031,0.625
	s1.047-0.578,1.125-0.672s0.953-0.062,0.953-0.062L32.306,47.638z"/>
<path d="M19.945,36.011L19.945,36.011C19.953,36.001,19.951,36.003,19.945,36.011z"/>
<path fill="#58595B" d="M4.625,22.998c0,0-1.823-3.06-0.777-5.747c1.046-2.689,1.963-6.789,4.305-7.826
	c2.342-1.039,7.396,0.641,8.717,1.249c1.322,0.607,4.77,3.413,5.348,5.85c0.579,2.437,0.567,3.157,0.567,3.157l-5.25-4.594
	l-0.625,4.359c0,0-1.824-3.06-2.607-3.379c-0.784-0.318,1.691,7.877,1.691,7.877l-4.945-5.055l1.801,4.899l-3.955-2.942l1.033,4.658
	l-3.062-2.088c0,0-0.506,3.377-0.459,3.605C6.454,27.253,4.625,22.998,4.625,22.998z"/>
<path fill="#58595B" d="M48.363,18.437c-0.047-0.23-1.839-3.137-1.839-3.137l-1.995,3.123l-0.88-4.689l-2.48,4.26l-0.269-5.213
	l-2.562,6.59c0,0-0.943-8.508-1.539-7.906c-0.595,0.601-1.07,4.131-1.07,4.131l-2.287-3.764l-3.023,6.287
	c0,0-0.295-0.658-0.72-3.126c-0.425-2.468,1.643-6.403,2.62-7.48s4.963-4.608,7.525-4.573c2.561,0.034,5.015,3.443,7.034,5.504
	c2.018,2.062,1.543,5.592,1.543,5.592S48.41,18.665,48.363,18.437z"/>
<path fill="#58595B" d="M15.558,31.562c0,0-1.999,1.154-2.69,1.935c-0.692,0.779-1.729,1.95-1.729,1.95s1.692-1.091,2.69-1.935
	C14.827,32.67,15.558,31.562,15.558,31.562z"/>
<path fill="#58595B" d="M15.145,34.095c0,0-1.356,0.783-1.826,1.312c-0.469,0.529-1.173,1.324-1.173,1.324s1.148-0.74,1.825-1.312
	S15.145,34.095,15.145,34.095z"/>
<path fill="#58595B" d="M15.548,35.377c0,0-1.356,0.783-1.826,1.312c-0.469,0.53-1.173,1.323-1.173,1.323s1.148-0.74,1.826-1.312
	S15.548,35.377,15.548,35.377z"/>
<path fill="#58595B" d="M15.335,37.377c0,0-0.772,0.446-1.04,0.747c-0.267,0.302-0.668,0.754-0.668,0.754s0.654-0.422,1.04-0.748
	C15.053,37.806,15.335,37.377,15.335,37.377z"/>
<path fill="#58595B" d="M41.402,26.272c0,0,2.292,0.276,3.234,0.723c0.942,0.445,2.356,1.113,2.356,1.113s-1.985-0.339-3.234-0.722
	C42.509,27.004,41.402,26.272,41.402,26.272z"/>
<path fill="#58595B" d="M42.776,28.438c0,0,1.555,0.188,2.195,0.49s1.599,0.756,1.599,0.756s-1.347-0.23-2.194-0.489
	C43.528,28.936,42.776,28.438,42.776,28.438z"/>
<path fill="#58595B" d="M42.91,29.776c0,0,1.555,0.188,2.194,0.49c0.64,0.303,1.599,0.756,1.599,0.756s-1.347-0.23-2.194-0.49
	S42.91,29.776,42.91,29.776z"/>
<path fill="#58595B" d="M43.891,31.532c0,0,0.885,0.107,1.25,0.279s0.911,0.43,0.911,0.43s-0.768-0.131-1.25-0.278
	C44.319,31.815,43.891,31.532,43.891,31.532z"/>
<g>
	<path fill="#FFFFFF" d="M30.095,52.667c0,0-0.372-0.643-0.39-1.518c-0.02-0.873-0.02-0.873-0.02-0.873s1.895,1.847,1.39,2.109
		C30.57,52.649,30.095,52.667,30.095,52.667z"/>
	<path fill="#FFFFFF" d="M31.598,52.53c0,0-0.157-0.272-0.165-0.643c-0.008-0.371-0.008-0.371-0.008-0.371s0.803,0.783,0.589,0.895
		C31.799,52.522,31.598,52.53,31.598,52.53z"/>
	<path fill="#FFFFFF" d="M29.132,51.598c0,0-0.157-0.272-0.166-0.643c-0.008-0.371-0.008-0.371-0.008-0.371s0.804,0.784,0.589,0.896
		S29.132,51.598,29.132,51.598z"/>
	<path fill="#FFFFFF" d="M28.8,51.147c0,0-0.157-0.273-0.166-0.644s-0.008-0.37-0.008-0.37s0.804,0.783,0.589,0.895
		C29.002,51.14,28.8,51.147,28.8,51.147z"/>
	<path fill="#FFFFFF" d="M28.469,50.696c0,0-0.157-0.272-0.166-0.643c-0.008-0.371-0.008-0.371-0.008-0.371s0.803,0.783,0.589,0.895
		S28.469,50.696,28.469,50.696z"/>
	<path fill="#FFFFFF" d="M28.199,50.353c0,0-0.157-0.272-0.166-0.643c-0.008-0.371-0.008-0.371-0.008-0.371s0.803,0.783,0.589,0.895
		C28.4,50.345,28.199,50.353,28.199,50.353z"/>
	<path fill="#FFFFFF" d="M27.821,49.871c0,0-0.157-0.272-0.166-0.644c-0.008-0.37-0.008-0.37-0.008-0.37s0.803,0.783,0.589,0.895
		C28.022,49.864,27.821,49.871,27.821,49.871z"/>
	<path fill="#FFFFFF" d="M27.682,49.58c0,0-0.158-0.272-0.166-0.644c-0.008-0.37-0.008-0.37-0.008-0.37s0.803,0.783,0.589,0.896
		C27.883,49.573,27.682,49.58,27.682,49.58z"/>
	<g>
		<path fill="#FFFFFF" d="M37.021,49.983c0,0,0.037-0.312-0.101-0.656c-0.138-0.344-0.138-0.344-0.138-0.344
			s-0.431,1.035-0.19,1.054C36.832,50.056,37.021,49.983,37.021,49.983z"/>
		<path fill="#FFFFFF" d="M37.148,49.438c0,0,0.037-0.312-0.101-0.656c-0.138-0.344-0.138-0.344-0.138-0.344
			s-0.431,1.035-0.19,1.054S37.148,49.438,37.148,49.438z"/>
		<path fill="#FFFFFF" d="M37.276,48.894c0,0,0.038-0.312-0.101-0.656s-0.138-0.344-0.138-0.344s-0.431,1.035-0.19,1.054
			C37.088,48.966,37.276,48.894,37.276,48.894z"/>
		<path fill="#FFFFFF" d="M37.389,48.472c0,0,0.038-0.312-0.101-0.657c-0.138-0.344-0.138-0.344-0.138-0.344
			s-0.431,1.036-0.19,1.055C37.201,48.544,37.389,48.472,37.389,48.472z"/>
		<path fill="#FFFFFF" d="M37.548,47.88c0,0,0.038-0.312-0.101-0.656c-0.138-0.344-0.138-0.344-0.138-0.344s-0.431,1.035-0.19,1.054
			C37.359,47.952,37.548,47.88,37.548,47.88z"/>
		<path fill="#FFFFFF" d="M37.562,47.558c0,0,0.038-0.312-0.101-0.656c-0.138-0.344-0.138-0.344-0.138-0.344
			s-0.431,1.036-0.19,1.055C37.373,47.63,37.562,47.558,37.562,47.558z"/>
	</g>
	<path fill="#FFFFFF" d="M32.238,52.421c0,0-0.157-0.271-0.166-0.643c-0.008-0.371-0.008-0.371-0.008-0.371s0.803,0.783,0.589,0.895
		C32.44,52.414,32.238,52.421,32.238,52.421z"/>
	<path fill="#FFFFFF" d="M32.908,52.312c0,0-0.157-0.273-0.166-0.644s-0.008-0.37-0.008-0.37s0.803,0.783,0.589,0.895
		C33.109,52.304,32.908,52.312,32.908,52.312z"/>
	<path fill="#FFFFFF" d="M35.176,51.798c0,0,0.037-0.312-0.101-0.656c-0.139-0.344-0.139-0.344-0.139-0.344s-0.431,1.035-0.19,1.054
		S35.176,51.798,35.176,51.798z"/>
	<path fill="#FFFFFF" d="M34.544,51.949c0,0,0.038-0.312-0.1-0.656c-0.138-0.345-0.138-0.345-0.138-0.345s-0.431,1.037-0.19,1.055
		C34.356,52.021,34.544,51.949,34.544,51.949z"/>
	<path fill="#FFFFFF" d="M33.967,52.121c0,0,0.038-0.312-0.101-0.656c-0.138-0.345-0.138-0.345-0.138-0.345s-0.431,1.036-0.19,1.055
		C33.779,52.193,33.967,52.121,33.967,52.121z"/>
	<path fill="#FFFFFF" d="M36.535,51.428c0,0,0.089-0.736-0.237-1.548c-0.326-0.811-0.326-0.811-0.326-0.811
		s-1.017,2.442-0.449,2.486C36.09,51.599,36.535,51.428,36.535,51.428z"/>
</g>
<g>
	<g>
		<path fill="#FDB913" d="M61.424,23.39h0.411c-0.106,0.289-0.285,0.557-0.536,0.799c-0.25,0.244-0.543,0.365-0.878,0.365
			c-0.212,0-0.39-0.057-0.531-0.168c-0.143-0.111-0.213-0.295-0.213-0.549c0-0.162,0.051-0.406,0.154-0.734l0.387-1.281H59.6
			l0.125-0.409h0.619l0.345-1.13h1.105l-0.345,1.13h0.676L62,21.821h-0.674l-0.457,1.505c-0.086,0.284-0.13,0.455-0.13,0.515
			c0,0.053,0.012,0.094,0.036,0.121c0.023,0.025,0.059,0.04,0.105,0.04C61.057,24.002,61.239,23.798,61.424,23.39z"/>
		<path fill="#FDB913" d="M62.102,24.44l1.292-4.221c0.03-0.098,0.044-0.17,0.044-0.215c0-0.131-0.153-0.196-0.457-0.196l0.13-0.386
			c0.387,0,0.65-0.004,0.79-0.016c0.141-0.012,0.311-0.039,0.513-0.087h0.353l-0.903,2.961c0.455-0.657,0.952-0.987,1.49-0.987
			c0.199,0,0.35,0.047,0.45,0.141c0.1,0.095,0.15,0.213,0.15,0.357c0,0.068-0.012,0.154-0.036,0.255
			c-0.024,0.103-0.152,0.567-0.384,1.396c-0.059,0.213-0.089,0.335-0.089,0.367c0,0.066,0.031,0.098,0.093,0.098
			c0.059,0,0.125-0.033,0.198-0.103c0.074-0.069,0.155-0.174,0.243-0.312h0.43c-0.154,0.307-0.358,0.551-0.609,0.731
			c-0.252,0.181-0.524,0.271-0.816,0.271c-0.431,0-0.645-0.174-0.645-0.525c0-0.141,0.095-0.523,0.285-1.148
			c0.106-0.344,0.16-0.555,0.16-0.629c0-0.105-0.048-0.158-0.144-0.158c-0.153,0-0.345,0.172-0.578,0.518
			c-0.232,0.344-0.449,0.746-0.649,1.205l-0.211,0.684H62.102z"/>
		<path fill="#FDB913" d="M67.843,23.296c-0.022,0.08-0.034,0.154-0.034,0.227c0,0.195,0.042,0.342,0.127,0.439
			c0.083,0.098,0.208,0.148,0.377,0.148c0.168,0,0.343-0.049,0.518-0.146s0.355-0.244,0.538-0.441h0.493
			c-0.197,0.293-0.472,0.537-0.823,0.735c-0.352,0.197-0.734,0.296-1.149,0.296c-0.358,0-0.653-0.078-0.883-0.236
			c-0.23-0.156-0.346-0.402-0.346-0.736c0-0.539,0.264-1.055,0.792-1.549c0.527-0.492,1.106-0.738,1.734-0.738
			c0.273,0,0.479,0.051,0.614,0.151c0.136,0.101,0.205,0.253,0.205,0.455c0,0.319-0.199,0.608-0.596,0.866
			C69.013,23.023,68.491,23.2,67.843,23.296z M67.928,22.907c0.301-0.045,0.57-0.175,0.805-0.389
			c0.236-0.213,0.354-0.424,0.354-0.631c0-0.076-0.018-0.134-0.055-0.172s-0.092-0.057-0.166-0.057
			c-0.175,0-0.346,0.111-0.513,0.332S68.044,22.519,67.928,22.907z"/>
	</g>
	<path fill="#FDB913" d="M59.434,33.593c0.144-0.157,0.23-0.346,0.23-0.576c0-0.217-0.071-0.418-0.144-0.62
		c-0.663-1.774-1.472-3.489-2.178-5.233c-0.331,0.908-0.706,1.786-1.067,2.681c0.361-0.173,0.736-0.23,1.125-0.23
		c0.274,0,0.562,0.058,0.809,0.202c0.114,0.403,0.2,0.838,0.301,1.24h-0.071c-0.288-0.504-0.879-0.808-1.441-0.808
		c-0.288,0-0.735,0.06-0.966,0.259c-0.217,0.562-0.778,1.818-0.778,2.395c0,0.26,0.086,0.504,0.259,0.691
		c-0.664-0.029-1.354-0.029-1.989,0c0.52-0.289,0.879-0.807,1.139-1.326c0.578-1.139,0.952-2.048,1.413-3.186
		c0.346-0.836,0.923-2.293,1.24-3.102c-1.226,0.26-1.717-0.533-2.769-0.547c-1.543-0.014-2.653,1.096-2.653,2.653
		c0,1.138,0.677,2.147,1.888,2.147c0.419,0,0.779-0.087,1.083-0.375c0.028,0.029,0.028,0.014,0.042,0.014
		c-0.101,0.188-1.009,1.703-1.125,1.717c-0.071,0.014-0.144,0.014-0.216,0.014c-1.672,0-2.854-1.369-2.854-2.971
		c0-2.104,1.845-3.617,3.878-3.617c0.765,0,2.826,0.664,3.187-0.259c0.562,1.195,0.965,2.048,1.528,3.2
		c0.72,1.471,1.456,2.957,2.235,4.383c0.316,0.592,0.475,0.951,0.951,1.254C61.221,33.563,61.005,33.563,59.434,33.593z"/>
	<path fill="#FDB913" d="M67.916,27.265c-0.663-0.852-1.153-1.097-2.234-1.097c-0.216,0-0.447-0.015-0.649,0.015
		c-0.318,0.043-0.375,0.332-0.39,0.605c-0.071,0.822-0.087,1.645-0.101,2.48c0.447-0.275,1.284-0.348,1.802-0.348
		c0.447,0,0.909,0.059,1.312,0.262c0.114,0.373,0.202,0.776,0.274,1.166c0.014,0-0.044,0-0.059,0
		c-0.389-0.605-1.456-0.807-2.119-0.807c-0.303,0-0.967,0.043-1.211,0.215c0,0.981,0.014,1.977,0.115,2.943
		c0.029,0.36,0.129,0.661,0.418,0.893c-0.794-0.016-1.701-0.016-2.522,0c0.288-0.231,0.374-0.532,0.403-0.893
		c0.072-1.023,0.058-2.078,0.058-3.115c0-0.922,0.014-1.875-0.072-2.797c-0.029-0.433-0.072-0.779-0.375-1.096
		c1.787,0.028,2.379,0.028,5.234,0c0.071,0.432,0.13,0.98,0.173,1.572C68.002,27.265,67.916,27.265,67.916,27.265z"/>
	<path fill="#FDB913" d="M72.953,33.593c-0.404-1.227-1.212-3.271-2.264-4.08c0-0.014,0-0.072,0-0.072
		c1.095,0.03,2.005-0.547,2.005-1.744c0-1.053-0.606-1.572-1.63-1.572c-0.274,0-0.433-0.043-0.547,0.231
		c-0.173,0.418-0.16,2.594-0.16,3.115c0,1.065,0.016,2.161,0.129,3.243c0.03,0.347,0.131,0.647,0.419,0.879
		c-0.88-0.016-1.702-0.016-2.552,0c0.303-0.231,0.388-0.532,0.404-0.879c0.071-1.037,0.071-2.092,0.071-3.115
		c0-0.936,0-1.889-0.071-2.811c-0.03-0.418-0.073-0.765-0.375-1.096c1.904,0.028,1.701,0.014,3.302,0
		c1.197-0.029,2.681,0.461,2.681,1.889c0,1.457-1.21,1.99-2.451,2.032c0.188,0.015,0.547,0.175,0.707,0.274
		c1.182,0.807,1.354,2.941,2.609,3.705C74.25,33.577,73.687,33.577,72.953,33.593z"/>
	<path fill="#FDB913" d="M75.308,33.593c0.317-0.231,0.388-0.532,0.403-0.893c0.072-1.023,0.072-2.078,0.072-3.115
		c0-0.922,0-1.875-0.072-2.812c-0.029-0.418-0.072-0.765-0.375-1.081c1.067,0.028,1.312,0.028,2.451,0
		c-0.303,0.331-0.347,0.691-0.375,1.111c-0.087,0.906-0.087,1.845-0.087,2.752c0,1.038,0,2.104,0.102,3.145
		c0.043,0.36,0.129,0.661,0.418,0.893C77.008,33.577,76.158,33.577,75.308,33.593z"/>
	<path fill="#FDB913" d="M84.791,33.462c-0.894,0.219-1.874,0.332-2.783,0.332c-2.378,0-3.964-1.858-3.964-4.195
		c0-2.363,1.629-4.109,4.037-4.094c0.894,0,1.816,0.016,2.623,0.403c0.145,0.548,0.23,1.457,0.289,2.135c0,0-0.059,0-0.072,0
		c-0.477-1.197-1.543-2.135-2.624-2.135c-1.933,0.015-2.509,2.104-2.509,3.69c0,1.37,0.663,3.822,2.437,3.837
		c1.5,0,2.522-1.37,2.912-2.077c0.015,0,0.086,0,0.072,0C85.093,32.195,84.934,33.044,84.791,33.462z"/>
	<path fill="#FDB913" d="M90.641,33.593c0.129-0.157,0.23-0.332,0.23-0.532c0-0.218-0.072-0.405-0.145-0.592
		c-0.619-1.659-1.384-3.272-2.047-4.917c-0.303,0.852-0.664,1.672-0.995,2.508c0.331-0.144,0.692-0.201,1.053-0.201
		c0.259,0,0.519,0.058,0.75,0.188c0.114,0.375,0.201,0.779,0.288,1.153h-0.072c-0.26-0.461-0.808-0.749-1.341-0.749
		c-0.274,0-0.707,0.057-0.922,0.244c-0.203,0.52-0.722,1.717-0.722,2.25c0,0.23,0.072,0.477,0.245,0.648
		c-0.621-0.016-1.269-0.016-1.874,0c0.475-0.273,0.822-0.75,1.066-1.239c0.548-1.082,0.908-1.933,1.341-2.999
		c0.548-1.386,1.01-2.537,1.587-4.079c0.533,1.138,0.923,1.931,1.44,3.026c0.678,1.369,1.37,2.768,2.092,4.109
		c0.303,0.561,0.461,0.893,0.907,1.182C92.328,33.577,92.126,33.577,90.641,33.593z"/>
	<path fill="#FDB913" d="M100.679,26.615c-0.145,1.673-0.175,4.944-0.13,6.978c-0.347-0.016-0.952-0.016-1.37,0
		c-0.461-1.397-1.515-2.307-2.479-3.359c-0.793-0.865-1.384-1.602-1.89-2.668c0.015,1.689,0.059,3.418,0.245,5.09
		c0.044,0.289,0.217,0.723,0.404,0.938c-0.548-0.016-1.183-0.016-1.773,0c0.217-0.201,0.389-0.648,0.418-0.938
		c0.13-1.742,0.158-4.094,0.101-5.852c-0.014-0.492-0.101-0.723-0.461-1.111c0.793,0.028,1.298,0.028,1.932,0
		c0.403,0.937,0.909,1.803,1.557,2.596c0.895,1.053,1.99,1.803,2.71,3.027c-0.027-1.572-0.128-3.128-0.272-4.7
		c-0.015-0.304-0.158-0.692-0.39-0.923c0.808,0.028,1.01,0.028,1.759,0C100.823,25.908,100.692,26.312,100.679,26.615z"/>
	<path fill="#FDB913" d="M123.375,24.538c-1.656,0.102-2.983,3.678-3.416,5.018c-0.576,1.76-0.995,2.855-1.586,4.613
		c-0.044,0.045-0.086,0.072-0.116,0c-0.288-0.646-0.519-1.354-0.792-2.031c-0.562-1.414-1.14-2.812-1.744-4.211
		c-0.794,2.076-1.615,4.052-2.365,6.242c-0.014,0.031-0.086,0.072-0.101,0c-0.246-0.547-0.446-1.125-0.678-1.688
		c-0.808-2.018-1.601-4.063-2.537-6.025c-0.073-0.145-0.145-0.346-0.246-0.52c-0.2-0.416-0.59-0.504-1.095-0.504
		c-1.544,0-2.653,1.096-2.653,2.653c0,1.138,0.678,2.147,1.888,2.147c0.419,0,0.779-0.087,1.082-0.375
		c0.028,0.029,0.028,0.014,0.044,0.014c-0.102,0.188-1.01,1.703-1.126,1.717c-0.072,0.014-0.144,0.014-0.215,0.014
		c-1.673,0-2.854-1.369-2.854-2.971c0-2.104,1.845-3.617,3.878-3.617c0.864,0,1.514,0.172,2.365,0.187
		c0.332,0,0.678,0.017,1.009-0.015c-0.187,0.145-0.261,0.361-0.261,0.592c0,0.995,1.457,4.44,1.89,5.58
		c0.605-1.428,1.109-2.94,1.528-4.426c-0.23-0.534-0.605-1.457-1.14-1.746c0.952,0.059,2.106,0.059,2.999,0
		c-0.188,0.145-0.26,0.361-0.26,0.592c0,0.995,1.456,4.44,1.89,5.58c0.389-1.197,1.803-6.344,2.608-6.85
		c0.404-0.027,0.794-0.027,1.197-0.027c0.273,0,0.533,0,0.807,0.016V24.538z"/>
	<path fill="#FDB913" d="M122.188,33.593c0.318-0.231,0.391-0.532,0.405-0.893c0.071-1.023,0.071-2.078,0.071-3.115
		c0-0.922,0-1.875-0.071-2.812c-0.029-0.418-0.073-0.765-0.376-1.081c1.066,0.028,1.312,0.028,2.451,0
		c-0.303,0.331-0.346,0.691-0.376,1.111c-0.086,0.906-0.086,1.845-0.086,2.752c0,1.038,0,2.104,0.102,3.145
		c0.043,0.36,0.129,0.661,0.418,0.893C123.89,33.577,123.039,33.577,122.188,33.593z"/>
	<path fill="#FDB913" d="M130.46,33.593c-1.717-0.016-3.447-0.016-5.177,0c0.289-0.231,0.391-0.532,0.404-0.893
		c0.058-1.023,0.072-2.047,0.072-3.072c0-0.938-0.028-1.889-0.072-2.824c-0.014-0.434-0.072-0.78-0.375-1.111
		c0.822,0.028,1.7,0.028,2.451,0c-0.316,0.331-0.36,0.678-0.374,1.111c-0.06,0.951-0.087,1.887-0.087,2.838
		c0,1.024,0.043,2.049,0.101,3.059c0.014,0.143,0,0.23,0.087,0.316c0.172,0.172,0.49,0.145,0.59,0.145
		c1.212,0,2.266-0.492,2.899-1.385c0,0,0.071,0,0.058,0C130.907,32.366,130.676,33.061,130.46,33.593z"/>
	<path fill="#FDB913" d="M135.993,33.319c-0.59,0.203-1.211,0.303-1.845,0.289c-1.153-0.016-1.989-0.031-2.984-0.016
		c0.274-0.215,0.403-0.562,0.418-0.893c0.043-0.967,0.043-1.947,0.043-2.912c0-0.996-0.014-1.992-0.043-2.984
		c-0.015-0.42-0.058-0.78-0.345-1.111c1.874,0.028,1.644,0.014,3.228,0c2.438-0.044,4.312,1.355,4.312,3.906
		C138.776,31.373,137.636,32.772,135.993,33.319z M134.321,26.153c-0.159-0.014-0.835-0.014-0.921,0.029
		c-0.161,0.086-0.161,0.446-0.175,0.605c-0.057,0.836-0.057,1.672-0.057,2.508c0,0.418,0.016,3.662,0.157,3.765
		c0.13,0.085,0.304,0.085,0.432,0.085c2.235,0,3.289-1.34,3.289-3.547C137.046,27.769,136.325,26.212,134.321,26.153z"/>
	<path fill="#FDB913" d="M60.996,44.472c-0.779-0.03-1.76,0-2.813-0.42l0.015-0.041c0.043,0,0.087,0,0.128,0
		c0.723,0,1.068-0.75,1.11-1.356c0.046-0.692,0.03-1.399,0.03-2.09c0-1.241,0.03-2.495-0.072-3.721
		c-0.028-0.374-0.114-0.677-0.432-0.923c0.894,0.057,1.773,0.043,2.696,0c-0.303,0.246-0.403,0.549-0.447,0.923
		c-0.158,1.385-0.13,2.841-0.13,4.239c0,0.734-0.015,1.484,0.044,2.205c0.043,0.648,0.374,0.75,0.966,0.75
		c2.105,0,2.782-2.609,2.754-4.498c-0.028-2.581-1.197-4.268-4.196-4.296c-2.09-0.015-4.354,0.664-4.397,2.896
		c-0.029,0.896,0.549,1.676,1.513,1.676c0.391,0,0.722-0.117,0.981-0.406l0.042,0.031c-0.315,0.547-0.605,1.151-0.994,1.658
		c-0.159,0.041-0.317,0.041-0.445,0.041c-1.458,0-2.48-1.211-2.467-2.58c0.042-3.014,3.143-3.82,5.74-3.762
		c3.301,0.056,6.024,1.483,6.041,4.756C66.676,42.985,64.151,44.527,60.996,44.472z"/>
	<path fill="#FDB913" d="M71.468,44.558c-2.393,0-4.283-1.744-4.283-4.268s1.731-4.109,4.283-4.109
		c2.495,0.014,4.282,1.586,4.282,4.109S73.776,44.558,71.468,44.558z M71.468,36.569c-1.615,0-2.552,1.284-2.552,3.721
		s0.895,3.848,2.552,3.848c1.557,0,2.552-1.411,2.552-3.848S73.083,36.569,71.468,36.569z"/>
	<path fill="#FDB913" d="M83.844,42.222c0,0.303,0,1.355,0.201,1.586c-0.938,0.027-1.384,0.316-2.221,0.563
		c-0.459,0.144-0.965,0.2-1.441,0.2c-2.393,0-4.066-1.744-4.066-4.182c0-1.643,0.821-3.214,2.367-3.861
		c0.562-0.247,1.138-0.319,1.743-0.348c0.979-0.014,1.687,0.072,2.567,0.403c0.1,0.722,0.113,1.442,0.156,2.149c0,0-0.057,0-0.07,0
		c-0.577-1.227-1.125-2.135-2.639-2.135c-2.034,0-2.35,2.178-2.35,3.791c0,1.256,0.272,2.782,1.427,3.477
		c0.245,0.158,0.548,0.271,0.851,0.271c0.807,0,1.311-0.258,1.858-0.85c0.073-0.403,0.073-0.864,0.073-1.27
		c0-0.619-0.315-1.542-0.634-1.756c1.095,0.014,1.341,0.014,2.639,0C83.816,40.724,83.844,41.603,83.844,42.222z"/>
	<path fill="#FDB913" d="M95.051,40.837c-0.447,0-1.141-0.113-1.457-0.447h-0.014c0.014,0.998,0.014,1.99,0.115,2.984
		c0.043,0.389,0.145,0.707,0.448,0.953c-0.894-0.03-1.802-0.03-2.698,0c0.318-0.232,0.404-0.564,0.436-0.953
		c0.07-1.095,0.07-2.205,0.07-3.301c0-0.994,0-2.004-0.088-2.998c-0.027-0.447-0.069-0.809-0.387-1.154
		c1.139,0.029,1.396,0.029,2.594,0c-0.316,0.346-0.361,0.735-0.391,1.183c-0.1,1.036-0.1,2.091-0.1,3.142
		c0.216,0.072,0.445,0.102,0.664,0.102c1.311,0,1.961-0.965,1.961-2.248c0-2.207-1.125-2.826-3.359-2.869
		c-2.09-0.029-4.096,0.807-4.096,3.085c0,1.717,1.73,2.581,3.014,1.645c0.016,0,0.03,0.013,0.044,0.028
		c-0.201,0.417-0.751,1.369-1.052,1.701c-0.018,0.014-0.275,0.029-0.304,0.029c-1.729,0-2.986-1.328-2.986-2.971
		c0-2.883,2.712-3.908,5.38-3.894c2.35,0.03,5.174,0.649,5.174,3.216C98.02,39.655,96.581,40.837,95.051,40.837z"/>
	<path fill="#FDB913" d="M102.885,44.327c-0.403-1.227-1.211-3.273-2.265-4.082c0-0.014,0-0.071,0-0.071
		c1.099,0.03,2.007-0.548,2.007-1.745c0-1.053-0.605-1.57-1.629-1.57c-0.275,0-0.433-0.044-0.55,0.23
		c-0.172,0.418-0.159,2.596-0.159,3.115c0,1.066,0.016,2.162,0.13,3.242c0.029,0.348,0.13,0.648,0.419,0.881
		c-0.878-0.014-1.7-0.014-2.552,0c0.302-0.232,0.39-0.533,0.403-0.881c0.073-1.037,0.073-2.09,0.073-3.114
		c0-0.937,0-1.888-0.073-2.81c-0.028-0.419-0.07-0.766-0.374-1.097c1.903,0.028,1.7,0.015,3.302,0
		c1.194-0.028,2.68,0.461,2.68,1.889c0,1.456-1.21,1.989-2.449,2.032c0.188,0.016,0.547,0.174,0.706,0.274
		c1.181,0.808,1.354,2.942,2.608,3.706C104.184,44.313,103.62,44.313,102.885,44.327z"/>
	<path fill="#FDB913" d="M109.12,44.558c-2.393,0-4.283-1.744-4.283-4.268s1.73-4.109,4.283-4.109
		c2.493,0.014,4.281,1.586,4.281,4.109S111.426,44.558,109.12,44.558z M109.12,36.569c-1.616,0-2.553,1.284-2.553,3.721
		s0.895,3.848,2.553,3.848c1.557,0,2.55-1.411,2.55-3.848S110.734,36.569,109.12,36.569z"/>
	<path fill="#FDB913" d="M118.379,39.511c0,0.621,0.028,1.226,0.028,1.832c0,0.576-0.028,1.631,0.219,2.148
		c-1.372,0.1-2.322,1.73-4.933,1.688c-0.272-0.664-0.445-1.485-0.546-2.193h0.058c0.388,0.691,1.268,1.312,2.061,1.312
		c1.111,0,1.558-0.562,1.558-1.599c0-0.693,0.015-1.385,0.015-2.077c0-1.095-0.015-2.192-0.116-3.272
		c-0.015-0.245-0.173-0.75-0.345-0.923c0.777,0.028,1.644,0.028,2.421,0C118.368,36.786,118.379,38.921,118.379,39.511z"/>
	<path fill="#FDB913" d="M124.744,44.327c-2.608-0.014-1.268-0.014-5.32,0c0.288-0.232,0.374-0.533,0.403-0.895
		c0.073-1.023,0.073-2.076,0.073-3.101c0-0.937,0-1.888-0.073-2.81c-0.042-0.434-0.084-0.779-0.387-1.097
		c1.744,0.028,3.503,0.028,5.232,0c0.071,0.476,0.115,0.995,0.159,1.558h-0.058c-0.592-0.88-1.932-1.14-2.869-1.082
		c-0.334,0.029-0.375,0.346-0.389,0.635c-0.074,0.778-0.074,1.57-0.074,2.349c0.449-0.259,1.286-0.331,1.803-0.331
		c0.445,0,0.911,0.059,1.314,0.246c0.113,0.391,0.199,0.792,0.272,1.182h-0.058c-0.402-0.605-1.459-0.822-2.135-0.822
		c-0.288,0-0.95,0.059-1.197,0.23c0.016,0.98,0.016,1.99,0.088,2.971c0.015,0.203,0.041,0.434,0.275,0.461
		c1.455,0.189,2.723-0.258,3.457-1.311c0.017,0,0.072,0,0.072,0C125.192,43.101,124.959,43.794,124.744,44.327z"/>
	<path fill="#FDB913" d="M132.311,44.196c-0.896,0.217-1.875,0.331-2.783,0.331c-2.38,0-3.965-1.858-3.965-4.195
		c0-2.364,1.629-4.108,4.038-4.095c0.891,0,1.814,0.016,2.622,0.404c0.145,0.548,0.23,1.457,0.288,2.135c0,0-0.058,0-0.073,0
		c-0.473-1.197-1.542-2.135-2.622-2.135c-1.932,0.015-2.51,2.105-2.51,3.69c0,1.37,0.665,3.822,2.438,3.837
		c1.5,0,2.523-1.37,2.913-2.078c0.014,0,0.084,0,0.07,0C132.613,42.929,132.454,43.777,132.311,44.196z"/>
	<path fill="#FDB913" d="M139.875,38.271c-0.332-0.778-0.984-1.413-1.875-1.413c-0.116,0-0.218,0.014-0.318,0.028
		c-0.301,0.072-0.287,0.419-0.287,0.663c-0.058,0.879-0.058,1.832-0.058,2.74c0,1.053-0.016,2.119,0.099,3.156
		c0.029,0.348,0.117,0.648,0.421,0.881c-0.837-0.014-1.688-0.014-2.522,0c0.302-0.232,0.358-0.533,0.387-0.881
		c0.072-1.096,0.06-2.059,0.06-3.156c0-0.85-0.015-1.471-0.06-2.74c0-0.244,0.016-0.591-0.286-0.663
		c-0.101-0.015-0.201-0.028-0.319-0.028c-0.893,0-1.543,0.635-1.875,1.413h-0.055c0.027-0.606,0.1-1.226,0.17-1.846
		c2.194,0.028,4.356,0.028,6.403,0c0.087,0.605,0.144,1.239,0.172,1.846H139.875z"/>
</g>
<path fill="#58595B" d="M43.976,38.097l-1.514-0.599l0.832-0.948l-1.34-0.461l0.944-0.756c0,0-0.403-0.004-0.747,0.109
	c-0.343,0.114-1.004-0.789-1.004-0.789l1.146-0.84l-1.234-0.482l0.665-0.871l-0.913,0.015c0,0-0.971-0.477-1.058-0.519c0,0,0,0,0,0
	c-0.011-0.006-0.008-0.004,0,0c0.122,0.054-0.082-2.541-0.082-2.541s-1.238,0.211-1.343,0.059c-0.104-0.151,0.143-0.375,0.143-0.375
	s-2.909,0.639-3.18,0.564s1.559-0.795,1.559-0.795s-3.189,0.387-4.385,0.804s-0.859,2.351-1.156,2.151
	c-0.297-0.197-0.873-4.229-0.663-4.1c0.21,0.131,0.843,1.254,0.843,1.254s-0.346-0.793-0.638-1.685
	c-0.292-0.892-0.715-4.567,0.464-5.067c1.179-0.501,1.88-0.299,1.643-0.379c-0.236-0.082-1.787-3.844-1.787-3.844l-1.497,0.321
	l-0.097,2.6l-0.957-0.381l-0.242,1.202l-1.027,0.257l-0.959,0.15l-0.695-1.011l-0.73,0.727l-1.11-2.354l-1.502,0.293
	c0,0,0.051,4.068-0.134,4.236c-0.185,0.168,0.379-0.293,1.661-0.297c1.281-0.003,2.336,3.543,2.418,4.477
	c0.081,0.936,0.076,1.801,0.076,1.801s0.14-1.281,0.282-1.484c0.142-0.201,1.197,3.732,1.002,4.031
	c-0.195,0.299-0.645-1.611-1.909-1.525s-4.348,0.984-4.348,0.984s1.966-0.057,1.745,0.119C22.926,32.323,20,32.88,20,32.88
	s0.316,0.107,0.279,0.288s-1.258,0.474-1.258,0.474s0.833,2.466,0.924,2.369c0.006-0.008,0.008-0.01,0,0l0,0
	c-0.064,0.072-0.77,0.893-0.77,0.893l-0.845,0.346l0.953,0.539l-0.945,0.93l1.384,0.321c0,0-0.253,1.089-0.613,1.12
	s-0.729,0.192-0.729,0.192l1.165,0.323l-1.05,0.951l1.137,0.545l-1.157,1.145l-3.613-3.455l1.832,3.098l5.902,6.215
	c0,0,2.693,2.668,3.603,3.174c0.909,0.506,2.16,1.819,3.491,2.238c0.644,0.203,2.96,0.232,4.312,0.01
	c0.021-0.009,0.04-0.019,0.061-0.027c0.022,0,0.044,0.002,0.066,0.001c1.331-0.326,3.45-1.264,3.962-1.702
	c1.06-0.909,1.693-2.608,2.331-3.431c0.637-0.822,2.066-4.334,2.066-4.334l2.985-8.034l0.467-3.568L43.976,38.097z M29.353,42.019
	c0.601-0.264,3.095-0.803,3.875-0.834s1.975,0.562,2.077,1.062c0,0-0.256,2.935-1.499,2.023l-0.152-0.743
	c0.378-0.134,0.626-0.317,0.596-0.466c-0.04-0.197-0.553-0.26-1.146-0.139s-1.04,0.381-0.999,0.577
	c0.013,0.067,0.083,0.118,0.19,0.152l0.141,3.116l-0.125,0.041l-1.113-2.918c0.101-0.08,0.153-0.161,0.138-0.234
	c-0.041-0.197-0.554-0.259-1.146-0.138s-1.04,0.38-1,0.577c0.03,0.146,0.318,0.217,0.706,0.195l0.152,0.746l-0.025,0.006
	c-0.786,1.331-2.176-1.271-2.176-1.271C27.746,43.272,28.751,42.282,29.353,42.019z M36.349,52.024
	c-1.93,0.715-4.58,1.416-6.161,1.102s-6.252-6.232-6.252-6.232s2.966,1.876,4.638,1.854c1.672-0.022,3.202-0.734,3.892-0.876
	s2.46-0.265,3.517-0.561s4.139-3.656,4.246-3.917C40.334,43.132,38.278,51.312,36.349,52.024z"/>
<path fill="#FFFFFF" stroke="#414042" stroke-width="0.25" d="M24.911,34.603c0.315,0.785-0.287,1.764-1.344,2.188
	c-1.057,0.425-2.168,0.133-2.483-0.651s0.834-1.534,1.892-1.959C24.032,33.757,24.596,33.819,24.911,34.603z"/>
<circle fill="#414042" cx="22.962" cy="35.155" r="0.997"/>
<path fill="#FFFFFF" stroke="#414042" stroke-width="0.25" d="M34.779,32.598c-0.005,0.845,0.914,1.536,2.052,1.542
	c1.139,0.008,2.066-0.671,2.072-1.516c0.005-0.846-1.339-1.121-2.478-1.129C35.287,31.488,34.785,31.753,34.779,32.598z"/>
<circle fill="#414042" cx="36.795" cy="32.396" r="0.997"/>
<line fill="none" stroke="#414042" stroke-width="0.25" x1="31.895" y1="44.519" x2="32.541" y2="47.872"/>
<path fill="none" stroke="#4D4D4F" stroke-width="0.25" d="M26.395,33.935c0.105,2.356-0.377,3.926-2,5.676
	c-1.614,1.74-2.33,3.478-1.667,5.991"/>
<path fill="none" stroke="#4D4D4F" stroke-width="0.25" d="M32.737,32.456c0.709,2.25,1.7,3.558,3.824,4.646
	c2.113,1.081,3.381,2.468,3.62,5.058"/>
<g>
	<g>
		<path fill="#4D4D4F" d="M12.556,32.641C5.385,29.109,2.411,19.151,6.097,12.318c2.567-4.759,8.566-1.948,11.559,0.494
			c2.714,2.214,4.245,5.406,4.746,8.807c0.135,0.914,1.663,0.694,1.606-0.218C23.552,14.031,13.859,4.565,6.462,9.728
			c-3.144,2.194-4.098,7.666-3.575,11.136c0.717,4.763,4.75,10.83,9.492,12.197C12.625,33.132,12.793,32.757,12.556,32.641
			L12.556,32.641z"/>
	</g>
</g>
<g>
	<g>
		<path fill="#4D4D4F" d="M45.263,26.315c3.825-3.024,4.066-8.39,4.1-12.88c0.03-4.027-3.302-9.718-7.464-10.767
			c-8.836-2.228-14.591,10.288-11.966,17.409c0.359,0.974,1.85,0.6,1.577-0.436c-1.551-5.878,0.845-13.542,7.027-15.699
			c5.806-2.025,9.452,6.786,9.495,10.799c0.042,3.951-0.379,8.163-3.095,11.249C44.739,26.218,45.034,26.497,45.263,26.315
			L45.263,26.315z"/>
	</g>
</g>
</svg>
