<?xml version="1.0" encoding="utf-8"?>
<!-- Generator: Adobe Illustrator 15.1.0, SVG Export Plug-In . SVG Version: 6.00 Build 0)  -->
<!DOCTYPE svg PUBLIC "-//W3C//DTD SVG 1.1//EN" "http://www.w3.org/Graphics/SVG/1.1/DTD/svg11.dtd">
<svg version="1.1" id="Layer_1" xmlns="http://www.w3.org/2000/svg" xmlns:xlink="http://www.w3.org/1999/xlink" x="0px" y="0px"
	 width="281.989px" height="61.6px" viewBox="0 0 281.989 61.6" enable-background="new 0 0 281.989 61.6" xml:space="preserve">
<g>
	<path fill="#FFFFFF" d="M0.947,2.136h0.668V3.64H0V2.136L0.985,0h0.928L0.947,2.136z M3.696,2.136h0.668V3.64H2.748V2.136L3.732,0
		h0.929L3.696,2.136z"/>
	<path fill="#FFFFFF" d="M18.28,13.595h-2.711L9.532,2.507c-0.11-0.185-0.204-0.352-0.444-0.352c-0.354,0-0.391,0.203-0.391,0.501
		v9.62c0,0.13,0.037,0.298,0.26,0.333l0.668,0.131v0.854H6.598V12.74l0.668-0.131c0.222-0.036,0.26-0.203,0.26-0.333V2.544
		c0-0.13-0.038-0.297-0.26-0.334L6.598,2.08V1.226h3.677l6.018,10.995c0.13,0.224,0.223,0.334,0.426,0.334
		c0.354,0,0.39-0.204,0.39-0.501v-9.51c0-0.13-0.036-0.297-0.26-0.334l-0.668-0.13V1.226h3.028V2.08L18.54,2.21
		c-0.223,0.037-0.26,0.204-0.26,0.334V13.595z"/>
	<path fill="#FFFFFF" d="M23.717,8.469l3.77-0.056V7.336c0-0.669-0.222-1.078-0.761-1.319c-0.39-0.167-0.928-0.222-1.691-0.222
		c-1.745,0-3.474,0.408-3.474,0.408l-0.166-0.929c0,0,1.522-0.428,3.622-0.428c1.207,0,2.079,0.112,2.673,0.447
		c0.668,0.333,0.966,0.946,0.966,2.005v5.126c0,0.241,0.036,0.297,0.26,0.334l0.482,0.093v0.742h-1.819l-0.076-0.464
		c-0.018-0.111-0.054-0.297-0.296-0.297c-0.148,0-0.278,0.092-0.391,0.167l-0.872,0.594c0,0-0.985,0.13-1.765,0.13
		c-2.62,0-3.38-0.557-3.38-2.656C20.801,9.101,21.432,8.506,23.717,8.469z M27.487,9.287l-2.99,0.055
		c-1.617,0.019-2.469-0.185-2.469,1.746c0,1.597,0.668,1.689,2.357,1.689c1.283,0,3.102-0.407,3.102-0.407V9.287z"/>
	<path fill="#FFFFFF" d="M34.123,13.669c-0.947,0-1.431-0.148-1.727-0.445c-0.408-0.39-0.484-1.115-0.484-2.248V5.869h-1.633v-0.91
		h1.633V2.656h1.17v2.303h2.471v0.91h-2.471v5.479c0,0.558,0.018,0.929,0.278,1.169c0.204,0.187,0.558,0.26,1.227,0.26
		c0.426,0,0.947-0.093,0.947-0.093l0.111,0.817C35.645,13.502,34.717,13.669,34.123,13.669z"/>
	<path fill="#FFFFFF" d="M46.06,13.595h-1.729l-0.074-0.464c-0.018-0.111-0.056-0.297-0.296-0.297c-0.147,0-0.26,0.092-0.372,0.167
		l-0.891,0.594c0,0-0.892,0.13-1.393,0.13c-2.563,0-3.231-0.668-3.231-3.175V6.11c0-0.223-0.038-0.277-0.26-0.334L37.33,5.683V4.959
		h1.913v5.368c0,2.043,0.354,2.45,2.397,2.45c1.299,0,2.507-0.353,2.507-0.353V6.11c0-0.223-0.038-0.277-0.26-0.334l-0.484-0.093
		V4.959h1.914v7.484c0,0.224,0.038,0.279,0.26,0.334l0.483,0.094V13.595z"/>
	<path fill="#FFFFFF" d="M47.848,4.959h1.708l0.074,0.464c0.019,0.112,0.056,0.298,0.296,0.298c0.15,0,0.28-0.093,0.39-0.168
		l0.893-0.594c0,0,1.021-0.112,1.523-0.112c0.482,0,0.834,0.02,1.188,0.074l-0.074,1.115c0,0-0.688-0.094-1.449-0.094
		c-1.561,0-2.637,0.187-2.637,0.187v6.314c0,0.224,0.036,0.279,0.26,0.334l0.482,0.094v0.725h-2.655v-0.742l0.482-0.093
		c0.223-0.037,0.26-0.093,0.26-0.334V6.11c0-0.223-0.038-0.277-0.26-0.334l-0.482-0.093L47.848,4.959L47.848,4.959z"/>
	<path fill="#FFFFFF" d="M59.172,12.76c1.689,0,3.045-0.297,3.045-0.297l0.166,0.892c0,0-1.207,0.371-3.138,0.371
		c-2.841,0-4.272-0.52-4.272-4.438c0-1.17,0.167-2.267,0.446-2.916c0.501-1.17,1.615-1.523,3.603-1.523
		c1.542,0,2.657,0.167,3.231,0.874c0.464,0.595,0.65,1.411,0.65,2.86c0,0.334-0.019,0.649-0.036,1.002
		c-0.316,0.019-1.487,0.148-2.879,0.148c-1.337,0-2.563-0.073-2.563-0.073L56.849,9.27c-0.11-0.074-0.185-0.129-0.334-0.129
		c-0.353,0-0.315,0.333-0.315,0.575c0,0.78,0.019,1.765,0.557,2.359C57.203,12.574,58.019,12.76,59.172,12.76z M59.134,5.776
		c-2.729,0-2.804,0.483-2.916,2.88c1.281,0.204,2.785,0.167,2.785,0.167s1.542,0.037,2.656-0.074
		C61.66,6.055,61.139,5.776,59.134,5.776z"/>
	<path fill="#FFFFFF" d="M68.892,13.595V12.87l0.483-0.094c0.222-0.055,0.259-0.11,0.259-0.334V6.129
		c0-0.241-0.037-0.297-0.259-0.334l-0.483-0.093V4.959h1.913v7.466c0,0.241,0.037,0.297,0.26,0.334l0.483,0.093v0.742L68.892,13.595
		L68.892,13.595z M69.282,2.637V1.226h1.467v1.412L69.282,2.637L69.282,2.637z"/>
	<path fill="#FFFFFF" d="M76.936,13.725c-1.876,0-3.529-0.353-3.529-0.353l0.15-0.947c0,0,1.541,0.315,3.398,0.315
		c1.115,0,1.951-0.131,2.339-0.558c0.26-0.26,0.316-0.612,0.316-0.966c0-0.408-0.036-0.78-0.278-1.021
		c-0.334-0.353-1.096-0.427-2.545-0.444c-1.911-0.057-3.454,0.019-3.454-2.415c0-1.858,0.948-2.489,3.51-2.489
		c1.617,0,3.231,0.316,3.231,0.316l-0.13,0.91c0,0-1.689-0.261-2.971-0.261c-2.174,0-2.507,0.539-2.507,1.412
		c0,0.334-0.019,0.78,0.242,1.041c0.426,0.445,1.467,0.371,2.675,0.409c1.931,0.056,3.38,0.13,3.38,2.507
		C80.762,13.02,79.852,13.725,76.936,13.725z"/>
	<path fill="#FFFFFF" d="M89.685,8.469l3.77-0.056V7.336c0-0.669-0.222-1.078-0.76-1.319c-0.391-0.167-0.929-0.222-1.691-0.222
		c-1.745,0-3.474,0.408-3.474,0.408l-0.167-0.929c0,0,1.523-0.428,3.622-0.428c1.207,0,2.079,0.112,2.674,0.447
		c0.668,0.333,0.966,0.946,0.966,2.005v5.126c0,0.241,0.036,0.297,0.26,0.334l0.482,0.093v0.742h-1.819l-0.076-0.464
		c-0.019-0.111-0.055-0.297-0.297-0.297c-0.148,0-0.278,0.092-0.39,0.167l-0.873,0.594c0,0-0.984,0.13-1.764,0.13
		c-2.62,0-3.38-0.557-3.38-2.656C86.769,9.101,87.399,8.506,89.685,8.469z M93.454,9.287l-2.989,0.055
		c-1.617,0.019-2.47-0.185-2.47,1.746c0,1.597,0.669,1.689,2.358,1.689c1.283,0,3.102-0.407,3.102-0.407L93.454,9.287L93.454,9.287z
		"/>
	<path fill="#FFFFFF" d="M108.414,5.516c0.278,0.26,0.39,0.167,0.63,0.037l0.949-0.556c0.5-0.112,1.243-0.149,1.781-0.149
		c2.564,0,3.232,0.65,3.232,3.158v4.438c0,0.224,0.038,0.298,0.26,0.334l0.484,0.094v0.743h-2.657v-0.743l0.484-0.094
		c0.222-0.036,0.26-0.093,0.26-0.334V8.246c0-2.062-0.354-2.451-2.397-2.451c-0.947,0-1.837,0.147-2.767,0.278
		c0.223,0.464,0.353,0.929,0.353,1.448v4.903c0,0.241,0.036,0.297,0.26,0.334l0.482,0.093v0.742h-2.656v-0.725l0.483-0.094
		c0.224-0.055,0.26-0.11,0.26-0.334V8.246c0-2.062-0.353-2.451-2.396-2.451c-1.301,0-2.451,0.297-2.451,0.297v6.333
		c0,0.241,0.036,0.297,0.26,0.334l0.482,0.093v0.742h-2.655v-0.725l0.482-0.094c0.222-0.055,0.26-0.11,0.26-0.334V6.129
		c0-0.241-0.038-0.297-0.26-0.334l-0.482-0.093V4.959h1.727l0.074,0.464c0.018,0.112,0.038,0.298,0.298,0.298
		c0.13,0,0.258-0.093,0.371-0.168l0.892-0.594c0,0,0.835-0.112,1.337-0.112C107.726,4.847,108.042,5.201,108.414,5.516z"/>
	<path fill="#FFFFFF" d="M125.694,13.595h-1.728l-0.074-0.464c-0.018-0.111-0.056-0.297-0.296-0.297
		c-0.148,0-0.26,0.092-0.372,0.167l-0.891,0.594c0,0-0.893,0.13-1.393,0.13c-2.564,0-3.232-0.668-3.232-3.175V6.11
		c0-0.223-0.038-0.277-0.26-0.334l-0.484-0.093V4.959h1.913v5.368c0,2.043,0.354,2.45,2.397,2.45c1.299,0,2.508-0.353,2.508-0.353
		V6.11c0-0.223-0.038-0.277-0.26-0.334l-0.483-0.093V4.959h1.913v7.484c0,0.224,0.038,0.279,0.26,0.334l0.483,0.094L125.694,13.595
		L125.694,13.595z"/>
	<path fill="#FFFFFF" d="M130.556,13.669c-0.947,0-1.431-0.148-1.727-0.445c-0.408-0.39-0.484-1.115-0.484-2.248V5.869h-1.633v-0.91
		h1.633V2.656h1.171v2.303h2.471v0.91h-2.471v5.479c0,0.558,0.018,0.929,0.278,1.169c0.204,0.187,0.558,0.26,1.227,0.26
		c0.426,0,0.946-0.093,0.946-0.093l0.112,0.817C132.079,13.502,131.15,13.669,130.556,13.669z"/>
	<path fill="#FFFFFF" d="M136.595,8.469l3.77-0.056V7.336c0-0.669-0.222-1.078-0.761-1.319c-0.39-0.167-0.928-0.222-1.691-0.222
		c-1.746,0-3.474,0.408-3.474,0.408l-0.167-0.929c0,0,1.523-0.428,3.622-0.428c1.207,0,2.08,0.112,2.674,0.447
		c0.668,0.333,0.966,0.946,0.966,2.005v5.126c0,0.241,0.036,0.297,0.26,0.334l0.482,0.093v0.742h-1.819l-0.076-0.464
		c-0.018-0.111-0.054-0.297-0.296-0.297c-0.148,0-0.278,0.092-0.39,0.167l-0.873,0.594c0,0-0.984,0.13-1.765,0.13
		c-2.619,0-3.38-0.557-3.38-2.656C133.679,9.101,134.31,8.506,136.595,8.469z M140.365,9.287l-2.99,0.055
		c-1.617,0.019-2.47-0.185-2.47,1.746c0,1.597,0.668,1.689,2.357,1.689c1.282,0,3.102-0.407,3.102-0.407V9.287H140.365z"/>
	<path fill="#FFFFFF" d="M147.652,13.725c-1.06,0-2.471-0.148-3.474-0.464V2.396c0-0.24-0.036-0.298-0.26-0.334l-0.482-0.093V1.226
		h1.895v4.068c0,0.241,0.11,0.389,0.334,0.389c0.131,0,0.223-0.056,0.314-0.13l0.854-0.575c0,0,0.726-0.13,1.635-0.13
		c2.693,0,3.287,1.561,3.287,4.402C151.756,12.685,150.958,13.725,147.652,13.725z M147.93,5.795c-1.301,0-2.582,0.372-2.582,0.372
		v6.351c0,0,1.041,0.26,2.525,0.26c2.191,0,2.655-0.594,2.655-3.528C150.53,6.482,150.084,5.795,147.93,5.795z"/>
	<path fill="#FFFFFF" d="M153.206,13.595V12.87l0.481-0.094c0.224-0.055,0.26-0.11,0.26-0.334V2.396c0-0.24-0.036-0.298-0.26-0.334
		l-0.481-0.093V1.226h1.912v11.2c0,0.241,0.036,0.297,0.26,0.334l0.482,0.093v0.742H153.206z"/>
	<path fill="#FFFFFF" d="M161.536,12.76c1.688,0,3.045-0.297,3.045-0.297l0.166,0.892c0,0-1.207,0.371-3.138,0.371
		c-2.841,0-4.272-0.52-4.272-4.438c0-1.17,0.168-2.267,0.447-2.916c0.5-1.17,1.614-1.523,3.603-1.523
		c1.542,0,2.657,0.167,3.231,0.874c0.463,0.595,0.649,1.411,0.649,2.86c0,0.334-0.019,0.649-0.036,1.002
		c-0.316,0.019-1.486,0.148-2.879,0.148c-1.337,0-2.562-0.073-2.562-0.073l-0.578-0.391c-0.109-0.074-0.184-0.129-0.334-0.129
		c-0.353,0-0.313,0.333-0.313,0.575c0,0.78,0.019,1.765,0.558,2.359C159.565,12.574,160.381,12.76,161.536,12.76z M161.497,5.776
		c-2.729,0-2.804,0.483-2.914,2.88c1.279,0.204,2.785,0.167,2.785,0.167s1.541,0.037,2.655-0.074
		C164.022,6.055,163.502,5.776,161.497,5.776z"/>
	<path fill="#FFFFFF" d="M178.239,5.218l-0.148,0.874c0,0-1.338-0.297-2.711-0.297c-2.358,0-2.879,0.521-2.879,3.492
		s0.521,3.49,2.879,3.49c1.373,0,2.711-0.297,2.711-0.297l0.148,0.874c0,0-1.43,0.371-3.047,0.371c-2.896,0-3.918-0.78-3.918-4.438
		c0-3.659,1.021-4.439,3.918-4.439C176.809,4.847,178.239,5.218,178.239,5.218z"/>
	<path fill="#FFFFFF" d="M179.905,13.595V12.87l0.482-0.094c0.224-0.055,0.26-0.11,0.26-0.334V2.396c0-0.24-0.036-0.298-0.26-0.334
		l-0.482-0.093V1.226h1.913v11.2c0,0.241,0.036,0.297,0.261,0.334l0.481,0.093v0.742H179.905z"/>
	<path fill="#FFFFFF" d="M188.042,13.725c-3.324,0-3.918-0.78-3.918-4.438c0-3.659,0.594-4.439,3.918-4.439
		c3.326,0,3.92,0.78,3.92,4.439C191.961,12.945,191.368,13.725,188.042,13.725z M188.042,5.776c-2.451,0-2.691,0.372-2.691,3.512
		c0,3.139,0.24,3.51,2.691,3.51c2.453,0,2.692-0.371,2.692-3.51C190.734,6.147,190.495,5.776,188.042,5.776z"/>
	<path fill="#FFFFFF" d="M202.254,13.595h-1.729l-0.074-0.464c-0.018-0.111-0.056-0.297-0.296-0.297
		c-0.147,0-0.26,0.092-0.372,0.167l-0.891,0.594c0,0-0.893,0.13-1.393,0.13c-2.563,0-3.231-0.668-3.231-3.175V6.11
		c0-0.223-0.038-0.277-0.261-0.334l-0.483-0.093V4.959h1.913v5.368c0,2.043,0.354,2.45,2.396,2.45c1.299,0,2.508-0.353,2.508-0.353
		V6.11c0-0.223-0.038-0.277-0.26-0.334l-0.484-0.093V4.959h1.913v7.484c0,0.224,0.038,0.279,0.26,0.334l0.483,0.094V13.595
		L202.254,13.595z"/>
	<path fill="#FFFFFF" d="M210.261,13.595l-0.074-0.464c-0.021-0.111-0.056-0.297-0.315-0.297c-0.131,0-0.261,0.092-0.373,0.167
		l-0.89,0.594c0,0-0.707,0.13-1.579,0.13c-2.824,0-3.287-1.819-3.287-4.438c0-2.526,0.446-4.439,3.437-4.439
		c1.411,0,2.729,0.242,2.971,0.298v-2.75c0-0.24-0.036-0.298-0.26-0.334l-0.483-0.093V1.226h1.913v11.2
		c0,0.241,0.037,0.297,0.261,0.334l0.481,0.093v0.742H210.261z M210.149,6.017c-0.223-0.037-1.467-0.222-2.581-0.222
		c-2.155,0-2.601,0.724-2.601,3.492c0,2.786,0.445,3.473,2.601,3.473c1.3,0,2.581-0.372,2.581-0.372V6.017z"/>
	<path fill="#FFFFFF" d="M228.34,13.595h-2.451l-1.801-7.633c-0.021-0.056-0.039-0.112-0.111-0.112
		c-0.074,0-0.094,0.057-0.111,0.112l-1.746,7.633h-2.377l-1.877-7.466c-0.056-0.223-0.166-0.279-0.39-0.334l-0.444-0.112V4.959
		h2.768v0.743l-0.484,0.093c-0.223,0.055-0.24,0.205-0.205,0.372l1.282,5.962c0.093,0.408,0.224,0.648,0.539,0.648
		c0.353,0,0.464-0.241,0.557-0.648l1.562-6.983h1.986l1.598,6.983c0.092,0.408,0.222,0.648,0.576,0.648
		c0.315,0,0.445-0.241,0.521-0.648l1.207-5.962c0.037-0.167,0.037-0.316-0.187-0.372l-0.481-0.112V4.959h2.748v0.724l-0.427,0.112
		c-0.278,0.074-0.353,0.111-0.408,0.334L228.34,13.595z"/>
	<path fill="#FFFFFF" d="M232.081,1.226h1.912v4.049c0,0.241,0.092,0.391,0.316,0.391c0.148,0,0.222-0.057,0.334-0.13l0.835-0.576
		c0,0,0.983-0.112,1.485-0.112c2.563,0,3.232,0.65,3.232,3.158v4.438c0,0.224,0.036,0.279,0.26,0.334l0.482,0.094v0.725h-2.656
		v-0.742l0.483-0.093c0.224-0.037,0.26-0.093,0.26-0.334V8.228c0-2.042-0.353-2.433-2.396-2.433c-1.301,0-2.637,0.314-2.637,0.314
		v6.333c0,0.224,0.037,0.279,0.26,0.334l0.481,0.094v0.725h-2.655v-0.742l0.481-0.093c0.224-0.037,0.261-0.093,0.261-0.334V2.377
		c0-0.222-0.037-0.279-0.261-0.334l-0.479-0.093V1.226z"/>
	<path fill="#FFFFFF" d="M242.691,13.595V12.87l0.481-0.094c0.223-0.055,0.261-0.11,0.261-0.334V6.129
		c0-0.241-0.038-0.297-0.261-0.334l-0.481-0.093V4.959h1.913v7.466c0,0.241,0.036,0.297,0.26,0.334l0.482,0.093v0.742
		L242.691,13.595L242.691,13.595z M243.083,2.637V1.226h1.467v1.412L243.083,2.637L243.083,2.637z"/>
	<path fill="#FFFFFF" d="M253.809,5.218l-0.148,0.874c0,0-1.338-0.297-2.713-0.297c-2.357,0-2.877,0.521-2.877,3.492
		s0.52,3.49,2.877,3.49c1.375,0,2.713-0.297,2.713-0.297l0.148,0.874c0,0-1.432,0.371-3.047,0.371c-2.896,0-3.918-0.78-3.918-4.438
		c0-3.659,1.021-4.439,3.918-4.439C252.377,4.847,253.809,5.218,253.809,5.218z"/>
	<path fill="#FFFFFF" d="M255.476,1.226h1.914v4.049c0,0.241,0.092,0.391,0.315,0.391c0.148,0,0.223-0.057,0.334-0.13l0.834-0.576
		c0,0,0.984-0.112,1.486-0.112c2.562,0,3.232,0.65,3.232,3.158v4.438c0,0.224,0.035,0.279,0.26,0.334l0.482,0.094v0.725h-2.655
		v-0.742l0.481-0.093c0.225-0.037,0.26-0.093,0.26-0.334V8.228c0-2.042-0.353-2.433-2.396-2.433c-1.3,0-2.637,0.314-2.637,0.314
		v6.333c0,0.224,0.036,0.279,0.26,0.334l0.481,0.094v0.725h-2.655v-0.742l0.483-0.093c0.224-0.037,0.26-0.093,0.26-0.334V2.377
		c0-0.222-0.037-0.279-0.26-0.334l-0.483-0.093V1.226H255.476z"/>
	<path fill="#FFFFFF" d="M270.118,13.595V12.87l0.482-0.094c0.223-0.055,0.26-0.11,0.26-0.334V6.129c0-0.241-0.037-0.297-0.26-0.334
		l-0.482-0.093V4.959h1.914v7.466c0,0.241,0.035,0.297,0.26,0.334l0.482,0.093v0.742L270.118,13.595L270.118,13.595z M270.508,2.637
		V1.226h1.467v1.412L270.508,2.637L270.508,2.637z"/>
	<path fill="#FFFFFF" d="M278.163,13.725c-1.877,0-3.529-0.353-3.529-0.353l0.15-0.947c0,0,1.541,0.315,3.397,0.315
		c1.114,0,1.95-0.131,2.339-0.558c0.261-0.26,0.316-0.612,0.316-0.966c0-0.408-0.037-0.78-0.278-1.021
		c-0.334-0.353-1.097-0.427-2.545-0.444c-1.912-0.057-3.454,0.019-3.454-2.415c0-1.858,0.947-2.489,3.51-2.489
		c1.617,0,3.23,0.316,3.23,0.316l-0.129,0.91c0,0-1.689-0.261-2.972-0.261c-2.173,0-2.507,0.539-2.507,1.412
		c0,0.334-0.02,0.78,0.242,1.041c0.426,0.445,1.467,0.371,2.675,0.409c1.931,0.056,3.38,0.13,3.38,2.507
		C281.989,13.02,281.079,13.725,278.163,13.725z"/>
	<path fill="#FFFFFF" d="M9.054,30.148l3.77-0.054v-1.079c0-0.668-0.223-1.077-0.761-1.317c-0.39-0.167-0.929-0.224-1.691-0.224
		c-1.746,0-3.474,0.408-3.474,0.408l-0.167-0.929c0,0,1.523-0.427,3.622-0.427c1.208,0,2.08,0.11,2.674,0.445
		c0.668,0.334,0.966,0.948,0.966,2.007v5.125c0,0.242,0.036,0.298,0.26,0.334l0.482,0.095v0.741h-1.819L12.84,34.81
		c-0.018-0.111-0.054-0.298-0.296-0.298c-0.148,0-0.278,0.094-0.39,0.168l-0.873,0.594c0,0-0.984,0.13-1.765,0.13
		c-2.619,0-3.38-0.557-3.38-2.654C6.138,30.781,6.769,30.186,9.054,30.148z M12.824,30.966l-2.99,0.056
		c-1.617,0.019-2.47-0.186-2.47,1.745c0,1.598,0.668,1.69,2.357,1.69c1.282,0,3.102-0.41,3.102-0.41L12.824,30.966L12.824,30.966z"
		/>
	<path fill="#FFFFFF" d="M16.369,35.274V34.55l0.482-0.093c0.224-0.057,0.26-0.112,0.26-0.334V24.075
		c0-0.241-0.036-0.297-0.26-0.334l-0.482-0.093v-0.741h1.913v11.197c0,0.242,0.038,0.298,0.26,0.334l0.482,0.095v0.741
		L16.369,35.274L16.369,35.274z"/>
	<path fill="#FFFFFF" d="M31.405,35.274h-2.452l-1.801-7.634c-0.02-0.054-0.038-0.109-0.112-0.109c-0.074,0-0.094,0.057-0.112,0.109
		l-1.745,7.634h-2.377l-1.876-7.465c-0.056-0.222-0.167-0.278-0.39-0.334l-0.445-0.112v-0.725h2.768v0.743l-0.484,0.094
		c-0.222,0.057-0.24,0.204-0.204,0.372l1.282,5.961c0.092,0.409,0.222,0.65,0.538,0.65c0.353,0,0.464-0.242,0.557-0.65l1.561-6.982
		H28.1l1.597,6.982c0.093,0.409,0.223,0.65,0.576,0.65c0.316,0,0.447-0.242,0.521-0.65l1.207-5.961
		c0.036-0.168,0.036-0.315-0.186-0.372l-0.482-0.112v-0.725h2.748v0.725l-0.426,0.112c-0.278,0.074-0.353,0.112-0.409,0.334
		L31.405,35.274z"/>
	<path fill="#FFFFFF" d="M38.201,30.148l3.77-0.054v-1.079c0-0.668-0.222-1.077-0.761-1.317c-0.39-0.167-0.929-0.224-1.69-0.224
		c-1.746,0-3.474,0.408-3.474,0.408l-0.167-0.929c0,0,1.523-0.427,3.622-0.427c1.207,0,2.08,0.11,2.674,0.445
		c0.668,0.334,0.966,0.948,0.966,2.007v5.125c0,0.242,0.036,0.298,0.26,0.334l0.482,0.095v0.741h-1.819l-0.076-0.464
		c-0.018-0.111-0.055-0.298-0.296-0.298c-0.148,0-0.278,0.094-0.39,0.168l-0.873,0.594c0,0-0.984,0.13-1.764,0.13
		c-2.619,0-3.38-0.557-3.38-2.654C35.286,30.781,35.916,30.186,38.201,30.148z M41.971,30.966l-2.99,0.056
		c-1.617,0.019-2.469-0.186-2.469,1.745c0,1.598,0.668,1.69,2.357,1.69c1.282,0,3.102-0.41,3.102-0.41V30.966z"/>
	<path fill="#FFFFFF" d="M48.883,38.042c2.527,0,2.657-0.594,2.657-2.769v-0.333c0-0.223-0.093-0.39-0.316-0.39
		c-0.148,0-0.222,0.074-0.334,0.148l-0.854,0.594c0,0-0.539,0.112-1.041,0.112c-2.563,0-3.232-0.669-3.232-3.177v-4.438
		c0-0.225-0.036-0.28-0.26-0.334l-0.482-0.095v-0.725h2.656v0.743l-0.483,0.094c-0.224,0.036-0.26,0.092-0.26,0.334v4.196
		c0,2.043,0.353,2.453,2.396,2.453c1.3,0,2.191-0.372,2.191-0.372V27.79c0-0.225-0.037-0.28-0.26-0.334l-0.482-0.095v-0.725h2.656
		v0.743l-0.482,0.094c-0.222,0.036-0.26,0.092-0.26,0.334v7.094c0,3.362-0.631,4.068-3.808,4.068c-1.503,0-2.617-0.26-2.617-0.26
		l0.13-0.911C46.396,37.8,47.473,38.042,48.883,38.042z"/>
	<path fill="#FFFFFF" d="M58.809,35.406c-1.877,0-3.529-0.353-3.529-0.353l0.149-0.948c0,0,1.541,0.316,3.398,0.316
		c1.114,0,1.95-0.13,2.339-0.556c0.26-0.261,0.316-0.614,0.316-0.967c0-0.408-0.037-0.78-0.279-1.021
		c-0.333-0.354-1.096-0.428-2.543-0.446c-1.913-0.057-3.455,0.019-3.455-2.416c0-1.856,0.948-2.488,3.51-2.488
		c1.617,0,3.232,0.315,3.232,0.315l-0.13,0.91c0,0-1.689-0.26-2.972-0.26c-2.173,0-2.507,0.538-2.507,1.413
		c0,0.334-0.018,0.777,0.242,1.038c0.426,0.447,1.467,0.373,2.674,0.409c1.933,0.057,3.381,0.13,3.381,2.507
		C62.634,34.699,61.724,35.406,58.809,35.406z"/>
	<path fill="#FFFFFF" d="M71.555,30.148l3.77-0.054v-1.079c0-0.668-0.222-1.077-0.761-1.317c-0.39-0.167-0.928-0.224-1.69-0.224
		c-1.746,0-3.475,0.408-3.475,0.408l-0.166-0.929c0,0,1.523-0.427,3.622-0.427c1.207,0,2.079,0.11,2.674,0.445
		c0.668,0.334,0.966,0.948,0.966,2.007v5.125c0,0.242,0.036,0.298,0.26,0.334l0.482,0.095v0.741h-1.819l-0.075-0.464
		c-0.019-0.111-0.055-0.298-0.296-0.298c-0.148,0-0.278,0.094-0.39,0.168l-0.873,0.594c0,0-0.984,0.13-1.765,0.13
		c-2.62,0-3.38-0.557-3.38-2.654C68.64,30.781,69.271,30.186,71.555,30.148z M75.325,30.966l-2.989,0.056
		c-1.617,0.019-2.47-0.186-2.47,1.745c0,1.598,0.668,1.69,2.358,1.69c1.282,0,3.101-0.41,3.101-0.41V30.966z"/>
	<path fill="#FFFFFF" d="M78.962,26.638h1.709l0.074,0.464c0.018,0.112,0.056,0.298,0.296,0.298c0.149,0,0.278-0.093,0.39-0.167
		l0.892-0.595c0,0,1.021-0.11,1.522-0.11c2.563,0,3.232,0.649,3.232,3.156v4.44c0,0.222,0.037,0.296,0.26,0.334l0.482,0.093v0.742
		h-2.655v-0.742l0.482-0.093c0.222-0.038,0.26-0.112,0.26-0.334v-4.216c0-2.043-0.352-2.434-2.395-2.434
		c-1.301,0-2.638,0.316-2.638,0.316v6.333c0,0.222,0.036,0.277,0.26,0.334l0.482,0.093v0.724h-2.656v-0.741l0.482-0.095
		c0.222-0.036,0.26-0.092,0.26-0.334v-6.313c0-0.225-0.038-0.28-0.26-0.334l-0.482-0.095v-0.725H78.962z"/>
	<path fill="#FFFFFF" d="M95.767,35.274l-0.074-0.464c-0.02-0.111-0.056-0.298-0.316-0.298c-0.13,0-0.26,0.094-0.372,0.168
		l-0.891,0.594c0,0-0.706,0.13-1.579,0.13c-2.823,0-3.287-1.819-3.287-4.438c0-2.527,0.446-4.438,3.436-4.438
		c1.411,0,2.729,0.241,2.972,0.297v-2.749c0-0.241-0.037-0.297-0.261-0.334l-0.482-0.093v-0.741h1.913v11.197
		c0,0.242,0.037,0.298,0.26,0.334l0.483,0.095v0.741L95.767,35.274L95.767,35.274z M95.655,27.698
		c-0.223-0.036-1.467-0.224-2.582-0.224c-2.155,0-2.599,0.726-2.599,3.492c0,2.786,0.444,3.472,2.599,3.472
		c1.301,0,2.582-0.371,2.582-0.371V27.698z"/>
	<path fill="#FFFFFF" d="M103.204,26.638h1.708l0.074,0.464c0.018,0.112,0.056,0.298,0.296,0.298c0.15,0,0.278-0.093,0.39-0.167
		l0.892-0.595c0,0,1.021-0.11,1.523-0.11c2.563,0,3.232,0.649,3.232,3.156v4.44c0,0.222,0.036,0.296,0.26,0.334l0.482,0.093v0.742
		h-2.655v-0.742l0.482-0.093c0.223-0.038,0.26-0.112,0.26-0.334v-4.216c0-2.043-0.352-2.434-2.395-2.434
		c-1.301,0-2.637,0.316-2.637,0.316v6.333c0,0.222,0.036,0.277,0.26,0.334l0.482,0.093v0.724h-2.655v-0.741l0.482-0.095
		c0.222-0.036,0.26-0.092,0.26-0.334v-6.313c0-0.225-0.038-0.28-0.26-0.334l-0.482-0.095L103.204,26.638L103.204,26.638z"/>
	<path fill="#FFFFFF" d="M117.666,34.438c1.689,0,3.045-0.296,3.045-0.296l0.167,0.892c0,0-1.207,0.372-3.138,0.372
		c-2.842,0-4.272-0.521-4.272-4.438c0-1.17,0.168-2.267,0.446-2.916c0.5-1.171,1.615-1.523,3.603-1.523
		c1.542,0,2.657,0.167,3.231,0.873c0.464,0.595,0.65,1.411,0.65,2.86c0,0.334-0.018,0.65-0.036,1.002
		c-0.316,0.021-1.486,0.15-2.879,0.15c-1.337,0-2.563-0.076-2.563-0.076l-0.576-0.39c-0.11-0.074-0.185-0.131-0.334-0.131
		c-0.352,0-0.314,0.335-0.314,0.576c0,0.78,0.019,1.765,0.557,2.359C115.697,34.254,116.513,34.438,117.666,34.438z M117.627,27.457
		c-2.729,0-2.804,0.481-2.915,2.877c1.281,0.204,2.785,0.168,2.785,0.168s1.541,0.036,2.656-0.074
		C120.153,27.734,119.633,27.457,117.627,27.457z"/>
	<path fill="#FFFFFF" d="M131.768,27.363l-0.428,0.112c-0.278,0.074-0.334,0.112-0.409,0.334l-2.507,7.465h-2.415l-2.507-7.465
		c-0.074-0.205-0.167-0.278-0.389-0.334l-0.446-0.112v-0.725h2.729v0.725l-0.483,0.112c-0.224,0.057-0.26,0.204-0.204,0.372
		l1.969,5.961c0.13,0.409,0.204,0.65,0.539,0.65c0.352,0,0.426-0.242,0.556-0.65l1.877-5.961c0.054-0.168,0.036-0.315-0.187-0.372
		l-0.483-0.094v-0.743h2.787L131.768,27.363L131.768,27.363z"/>
	<path fill="#FFFFFF" d="M137.141,34.438c1.689,0,3.045-0.296,3.045-0.296l0.167,0.892c0,0-1.207,0.372-3.138,0.372
		c-2.841,0-4.272-0.521-4.272-4.438c0-1.17,0.167-2.267,0.446-2.916c0.5-1.171,1.615-1.523,3.602-1.523
		c1.543,0,2.657,0.167,3.232,0.873c0.464,0.595,0.65,1.411,0.65,2.86c0,0.334-0.018,0.65-0.036,1.002
		c-0.316,0.021-1.487,0.15-2.879,0.15c-1.336,0-2.563-0.076-2.563-0.076l-0.577-0.39c-0.11-0.074-0.184-0.131-0.334-0.131
		c-0.353,0-0.314,0.335-0.314,0.576c0,0.78,0.018,1.765,0.556,2.359C135.171,34.254,135.988,34.438,137.141,34.438z M137.103,27.457
		c-2.729,0-2.804,0.481-2.916,2.877c1.281,0.204,2.786,0.168,2.786,0.168s1.541,0.036,2.655-0.074
		C139.628,27.734,139.107,27.457,137.103,27.457z"/>
	<path fill="#FFFFFF" d="M142.502,26.638h1.709l0.074,0.464c0.019,0.112,0.057,0.298,0.297,0.298c0.149,0,0.28-0.093,0.391-0.167
		l0.893-0.595c0,0,1.021-0.11,1.521-0.11c0.482,0,0.835,0.02,1.188,0.074l-0.074,1.115c0,0-0.688-0.094-1.449-0.094
		c-1.561,0-2.637,0.186-2.637,0.186v6.315c0,0.222,0.037,0.277,0.26,0.334l0.482,0.093v0.724H142.5v-0.741l0.482-0.095
		c0.223-0.036,0.26-0.092,0.26-0.334v-6.313c0-0.225-0.037-0.28-0.26-0.334l-0.482-0.095v-0.725H142.502z"/>
	<path fill="#FFFFFF" d="M156.513,35.349c-0.947,0-1.431-0.147-1.728-0.446c-0.408-0.39-0.484-1.112-0.484-2.246v-5.107h-1.633
		v-0.911h1.633v-2.303h1.171v2.303h2.471v0.911h-2.471v5.479c0,0.558,0.019,0.929,0.278,1.171c0.205,0.185,0.558,0.26,1.227,0.26
		c0.426,0,0.947-0.093,0.947-0.093l0.111,0.817C158.036,35.183,157.106,35.349,156.513,35.349z"/>
	<path fill="#FFFFFF" d="M159.72,22.906h1.913v4.048c0,0.243,0.092,0.39,0.316,0.39c0.147,0,0.221-0.056,0.334-0.13l0.834-0.576
		c0,0,0.984-0.11,1.485-0.11c2.563,0,3.231,0.649,3.231,3.156v4.44c0,0.222,0.037,0.277,0.26,0.334l0.482,0.093v0.724h-2.654v-0.741
		l0.481-0.095c0.224-0.036,0.261-0.092,0.261-0.334v-4.196c0-2.043-0.353-2.434-2.396-2.434c-1.302,0-2.638,0.316-2.638,0.316v6.333
		c0,0.222,0.035,0.277,0.26,0.334l0.482,0.093v0.724h-2.656v-0.741l0.482-0.095c0.225-0.036,0.26-0.092,0.26-0.334V24.057
		c0-0.222-0.035-0.278-0.26-0.334l-0.482-0.092v-0.725H159.72z"/>
	<path fill="#FFFFFF" d="M174.182,34.438c1.689,0,3.045-0.296,3.045-0.296l0.166,0.892c0,0-1.206,0.372-3.137,0.372
		c-2.842,0-4.272-0.521-4.272-4.438c0-1.17,0.168-2.267,0.446-2.916c0.501-1.171,1.615-1.523,3.604-1.523
		c1.541,0,2.656,0.167,3.231,0.873c0.464,0.595,0.649,1.411,0.649,2.86c0,0.334-0.019,0.65-0.037,1.002
		c-0.315,0.021-1.486,0.15-2.879,0.15c-1.336,0-2.562-0.076-2.562-0.076l-0.576-0.39c-0.109-0.074-0.186-0.131-0.334-0.131
		c-0.352,0-0.314,0.335-0.314,0.576c0,0.78,0.019,1.765,0.557,2.359C172.213,34.254,173.029,34.438,174.182,34.438z M174.144,27.457
		c-2.729,0-2.804,0.481-2.916,2.877c1.28,0.204,2.786,0.168,2.786,0.168s1.541,0.036,2.654-0.074
		C176.668,27.734,176.149,27.457,174.144,27.457z"/>
	<path fill="#FFFFFF" d="M187.598,35.406c-1.876,0-3.529-0.353-3.529-0.353l0.148-0.948c0,0,1.541,0.316,3.398,0.316
		c1.114,0,1.95-0.13,2.34-0.556c0.26-0.261,0.315-0.614,0.315-0.967c0-0.408-0.036-0.78-0.278-1.021
		c-0.334-0.354-1.097-0.428-2.543-0.446c-1.912-0.057-3.455,0.019-3.455-2.416c0-1.856,0.947-2.488,3.51-2.488
		c1.617,0,3.231,0.315,3.231,0.315l-0.13,0.91c0,0-1.689-0.26-2.973-0.26c-2.172,0-2.506,0.538-2.506,1.413
		c0,0.334-0.019,0.777,0.242,1.038c0.426,0.447,1.467,0.373,2.674,0.409c1.933,0.057,3.381,0.13,3.381,2.507
		C191.424,34.699,190.514,35.406,187.598,35.406z"/>
	<path fill="#FFFFFF" d="M196.202,30.148l3.771-0.054v-1.079c0-0.668-0.222-1.077-0.761-1.317c-0.391-0.167-0.928-0.224-1.69-0.224
		c-1.746,0-3.474,0.408-3.474,0.408l-0.168-0.929c0,0,1.523-0.427,3.623-0.427c1.207,0,2.078,0.11,2.674,0.445
		c0.668,0.334,0.966,0.948,0.966,2.007v5.125c0,0.242,0.036,0.298,0.26,0.334l0.481,0.095v0.741h-1.818l-0.076-0.464
		c-0.02-0.111-0.055-0.298-0.296-0.298c-0.147,0-0.278,0.094-0.39,0.168l-0.873,0.594c0,0-0.984,0.13-1.764,0.13
		c-2.619,0-3.381-0.557-3.381-2.654C193.286,30.781,193.917,30.186,196.202,30.148z M199.971,30.966l-2.989,0.056
		c-1.616,0.019-2.47-0.186-2.47,1.745c0,1.598,0.668,1.69,2.357,1.69c1.282,0,3.102-0.41,3.102-0.41V30.966z"/>
	<path fill="#FFFFFF" d="M210.926,27.198c0.277,0.26,0.391,0.165,0.63,0.035l0.948-0.557c0.5-0.112,1.244-0.148,1.781-0.148
		c2.563,0,3.231,0.649,3.231,3.156v4.44c0,0.222,0.038,0.296,0.26,0.334l0.484,0.093v0.742h-2.657v-0.742l0.484-0.093
		c0.222-0.038,0.26-0.093,0.26-0.334v-4.198c0-2.061-0.354-2.451-2.396-2.451c-0.947,0-1.838,0.148-2.768,0.278
		c0.223,0.464,0.354,0.928,0.354,1.449v4.902c0,0.242,0.035,0.298,0.26,0.334l0.481,0.095v0.741h-2.655v-0.724l0.482-0.093
		c0.225-0.057,0.26-0.112,0.26-0.334v-4.198c0-2.061-0.352-2.451-2.396-2.451c-1.299,0-2.45,0.296-2.45,0.296v6.333
		c0,0.242,0.037,0.298,0.26,0.334l0.481,0.095v0.741h-2.654V34.55l0.482-0.093c0.222-0.057,0.26-0.112,0.26-0.334v-6.315
		c0-0.242-0.038-0.298-0.26-0.334l-0.482-0.094v-0.743h1.727l0.074,0.464c0.018,0.112,0.038,0.298,0.299,0.298
		c0.129,0,0.258-0.093,0.371-0.167l0.891-0.595c0,0,0.836-0.11,1.338-0.11C210.238,26.528,210.554,26.88,210.926,27.198z"/>
	<path fill="#FFFFFF" d="M223.89,34.438c1.688,0,3.045-0.296,3.045-0.296l0.166,0.892c0,0-1.206,0.372-3.138,0.372
		c-2.842,0-4.272-0.521-4.272-4.438c0-1.17,0.168-2.267,0.446-2.916c0.5-1.171,1.615-1.523,3.604-1.523
		c1.541,0,2.656,0.167,3.231,0.873c0.464,0.595,0.649,1.411,0.649,2.86c0,0.334-0.019,0.65-0.037,1.002
		c-0.315,0.021-1.485,0.15-2.879,0.15c-1.336,0-2.562-0.076-2.562-0.076l-0.576-0.39c-0.109-0.074-0.186-0.131-0.334-0.131
		c-0.352,0-0.314,0.335-0.314,0.576c0,0.78,0.019,1.765,0.557,2.359C221.92,34.254,222.737,34.438,223.89,34.438z M223.852,27.457
		c-2.73,0-2.805,0.481-2.916,2.877c1.281,0.204,2.785,0.168,2.785,0.168s1.542,0.036,2.656-0.074
		C226.377,27.734,225.857,27.457,223.852,27.457z"/>
	<path fill="#FFFFFF" d="M229.305,33.584h1.875v1.689h-1.875V33.584z"/>
	<path fill="#FFFFFF" d="M233.357,26.546h-0.928l0.964-2.137h-0.668v-1.503h1.617v1.503L233.357,26.546z M236.105,26.546h-0.929
		l0.966-2.137h-0.668v-1.503h1.616v1.503L236.105,26.546z"/>
	<path fill="#FFFFFF" d="M8.909,60.708c0,0.064,0.019,0.14,0.13,0.168l0.474,0.092V61.6H7.33v-0.632l0.482-0.092
		c0.111-0.028,0.13-0.104,0.13-0.168v-4.401c0-0.063-0.019-0.139-0.13-0.168L7.33,56.047v-0.632h3.751
		c1.43,0,1.913,0.455,1.913,1.736c0,0.528-0.13,0.929-0.39,1.217c-0.242,0.269-0.603,0.391-0.957,0.427
		c-0.13,0.019-0.241,0.037-0.241,0.185c0,0.074,0.036,0.121,0.083,0.187l1.002,1.478c0.112,0.165,0.224,0.193,0.428,0.24
		l0.361,0.083V61.6h-1.366l-1.16-1.744v-0.957H8.909V60.708z M11.815,56.455c-0.148-0.14-0.438-0.223-1.059-0.223H8.909v1.857h1.848
		c0.622,0,0.911-0.094,1.059-0.224c0.166-0.167,0.177-0.408,0.177-0.704C11.992,56.873,11.981,56.623,11.815,56.455z"/>
	<path fill="#FFFFFF" d="M19.916,60.968l0.336-0.074c0.083-0.018,0.148-0.026,0.148-0.109c0-0.048-0.009-0.076-0.038-0.15
		l-0.316-0.816h-3.221l-0.334,0.836c-0.028,0.064-0.038,0.093-0.038,0.131c0,0.083,0.065,0.101,0.157,0.119l0.325,0.064V61.6h-2.07
		v-0.632l0.427-0.092c0.141-0.028,0.186-0.092,0.233-0.214l1.848-4.309c0.047-0.11,0.019-0.194-0.103-0.215l-0.491-0.083v-0.641
		h2.489l2.088,5.247c0.074,0.167,0.13,0.186,0.298,0.223l0.39,0.083V61.6h-2.128V60.968z M18.673,56.326
		c-0.056-0.14-0.085-0.215-0.224-0.215c-0.139,0-0.166,0.075-0.222,0.215l-1.096,2.729h2.619L18.673,56.326z"/>
	<path fill="#FFFFFF" d="M23.757,61.6v-0.632l0.483-0.092c0.111-0.028,0.13-0.104,0.13-0.168v-4.401c0-0.063-0.019-0.139-0.13-0.168
		l-0.483-0.092v-0.632h2.182v0.632l-0.473,0.092c-0.112,0.029-0.13,0.104-0.13,0.168v4.457h3.083V61.6H23.757z"/>
	<path fill="#FFFFFF" d="M34.18,59.483h-0.511c-0.39,0-0.706-0.018-0.706-0.018l-0.631-0.438c-0.083-0.057-0.148-0.102-0.251-0.102
		c-0.204,0-0.213,0.12-0.213,0.25v1.532c0,0.064,0.027,0.14,0.139,0.168l0.473,0.092V61.6h-2.182v-0.632l0.483-0.092
		c0.111-0.028,0.13-0.104,0.13-0.168v-4.401c0-0.063-0.019-0.139-0.13-0.168l-0.483-0.092v-0.632h3.864
		c1.189,0,1.801,0.649,1.801,1.903C35.963,58.073,35.963,59.483,34.18,59.483z M33.752,56.233h-1.875v2.35
		c0.491,0.103,1.188,0.103,1.689,0.103c0.966,0,1.404-0.064,1.404-1.263C34.97,56.42,34.532,56.233,33.752,56.233z"/>
	<path fill="#FFFFFF" d="M42.625,61.6v-0.632l0.483-0.092c0.112-0.028,0.13-0.104,0.13-0.168v-1.884h-3.519v1.884
		c0,0.064,0.019,0.14,0.13,0.168l0.474,0.092V61.6H38.14v-0.632l0.483-0.092c0.112-0.028,0.13-0.104,0.13-0.168v-4.401
		c0-0.063-0.018-0.139-0.13-0.168l-0.483-0.092v-0.632h2.183v0.632l-0.474,0.092c-0.112,0.029-0.13,0.104-0.13,0.168v1.754h3.519
		v-1.754c0-0.063-0.018-0.139-0.13-0.168l-0.483-0.092v-0.632h2.182v0.632l-0.473,0.092c-0.112,0.029-0.13,0.104-0.13,0.168v4.401
		c0,0.064,0.019,0.14,0.13,0.168l0.473,0.092V61.6H42.625z"/>
	<path fill="#FFFFFF" d="M61.075,56.159c-0.157,0.036-0.204,0.074-0.25,0.223L59.44,61.6h-1.884l-1.198-5.366
		c-0.02-0.094-0.065-0.167-0.177-0.167c-0.103,0-0.148,0.073-0.167,0.159L54.845,61.6H52.95l-1.375-5.218
		c-0.036-0.148-0.092-0.187-0.24-0.223l-0.455-0.103v-0.641h2.209v0.632L52.69,56.13c-0.13,0.028-0.121,0.112-0.092,0.224
		l1.02,4.188c0.047,0.194,0.112,0.296,0.298,0.296c0.185,0,0.25-0.102,0.296-0.296l1.058-5.126h1.821l1.142,5.126
		c0.038,0.194,0.103,0.296,0.288,0.296c0.195,0,0.251-0.102,0.297-0.296l0.985-4.188c0.018-0.11,0.018-0.194-0.112-0.224
		l-0.399-0.083v-0.632h2.22v0.641L61.075,56.159z"/>
	<path fill="#FFFFFF" d="M67.925,60.968l0.335-0.074c0.083-0.018,0.148-0.026,0.148-0.109c0-0.048-0.009-0.076-0.038-0.15
		l-0.316-0.816h-3.222L64.5,60.654c-0.029,0.064-0.038,0.093-0.038,0.131c0,0.083,0.065,0.101,0.157,0.119l0.325,0.064V61.6h-2.07
		v-0.632l0.426-0.092c0.141-0.028,0.186-0.092,0.233-0.214l1.848-4.309c0.047-0.11,0.018-0.194-0.103-0.215l-0.491-0.083v-0.641
		h2.489l2.088,5.247c0.074,0.167,0.13,0.186,0.298,0.223l0.39,0.083V61.6h-2.127V60.968z M66.682,56.326
		c-0.057-0.14-0.085-0.215-0.224-0.215s-0.166,0.075-0.223,0.215l-1.096,2.729h2.62L66.682,56.326z"/>
	<path fill="#FFFFFF" d="M71.766,61.6v-0.632l0.482-0.092c0.112-0.028,0.13-0.104,0.13-0.168v-4.401c0-0.063-0.018-0.139-0.13-0.168
		l-0.482-0.092v-0.632h2.182v0.632l-0.473,0.092c-0.112,0.029-0.13,0.104-0.13,0.168v4.457h3.083V61.6H71.766z"/>
	<path fill="#FFFFFF" d="M81.816,61.6h-3.51v-0.632l0.482-0.092c0.112-0.028,0.13-0.104,0.13-0.168v-4.401
		c0-0.063-0.018-0.139-0.13-0.168l-0.482-0.092v-0.632h3.51c2.489,0,2.666,1.282,2.666,3.083C84.482,60.3,84.305,61.6,81.816,61.6z
		 M81.798,56.233h-1.913v4.551h1.913c1.671,0,1.689-0.894,1.689-2.276C83.487,57.115,83.469,56.233,81.798,56.233z"/>
	<path fill="#FFFFFF" d="M89.463,61.665c-2.469,0-2.749-0.679-2.749-3.148c0-2.655,0.381-3.167,2.74-3.167
		c2.479,0,2.729,0.668,2.729,3.167S91.924,61.665,89.463,61.665z M89.454,56.159c-1.569,0-1.747,0.231-1.747,2.357
		c0,2.017,0.13,2.332,1.756,2.332c1.662,0,1.727-0.334,1.727-2.332C91.19,56.576,91.172,56.159,89.454,56.159z"/>
	<path fill="#FFFFFF" d="M98.57,61.6v-0.632l0.482-0.092c0.112-0.028,0.13-0.104,0.13-0.168v-4.401c0-0.063-0.018-0.139-0.13-0.168
		l-0.482-0.092v-0.632h4.987v0.827h-3.409v1.781h3.297v0.809h-3.297v1.94h3.409V61.6H98.57z"/>
	<path fill="#FFFFFF" d="M113.627,56.047l-0.483,0.092c-0.11,0.029-0.13,0.104-0.13,0.168v4.401c0,0.064,0.02,0.14,0.13,0.168
		l0.483,0.092V61.6h-2.192v-0.632l0.484-0.092c0.11-0.028,0.13-0.104,0.13-0.168v-4.326c0-0.148-0.029-0.251-0.195-0.251
		c-0.148,0-0.186,0.103-0.242,0.213l-1.366,3.176h-1.216l-1.402-3.213c-0.047-0.093-0.094-0.177-0.214-0.177
		c-0.176,0-0.195,0.103-0.195,0.251v4.326c0,0.064,0.019,0.14,0.13,0.168l0.474,0.092V61.6h-2.099v-0.632l0.482-0.092
		c0.112-0.028,0.13-0.104,0.13-0.168v-4.401c0-0.063-0.019-0.139-0.13-0.168l-0.482-0.092v-0.632h2.525l1.31,3.186
		c0.018,0.027,0.038,0.064,0.092,0.064c0.047,0,0.076-0.038,0.085-0.064l1.29-3.186h2.601V56.047z"/>
	<path fill="#FFFFFF" d="M115.936,61.6v-0.632l0.482-0.092c0.112-0.028,0.13-0.104,0.13-0.168v-4.401
		c0-0.063-0.018-0.139-0.13-0.168l-0.482-0.092v-0.632h4.987v0.827h-3.409v1.781h3.297v0.809h-3.297v1.94h3.409V61.6H115.936z"/>
	<path fill="#FFFFFF" d="M124.669,60.708c0,0.064,0.018,0.14,0.13,0.168l0.474,0.092V61.6h-2.182v-0.632l0.482-0.092
		c0.112-0.028,0.13-0.104,0.13-0.168v-4.401c0-0.063-0.019-0.139-0.13-0.168l-0.482-0.092v-0.632h3.751
		c1.429,0,1.913,0.455,1.913,1.736c0,0.528-0.13,0.929-0.39,1.217c-0.242,0.269-0.604,0.391-0.958,0.427
		c-0.13,0.019-0.24,0.037-0.24,0.185c0,0.074,0.036,0.121,0.083,0.187l1.002,1.478c0.112,0.165,0.224,0.193,0.428,0.24l0.361,0.083
		V61.6h-1.366l-1.16-1.744v-0.957h-1.848v1.81H124.669z M127.576,56.455c-0.148-0.14-0.438-0.223-1.059-0.223h-1.848v1.857h1.848
		c0.622,0,0.911-0.094,1.059-0.224c0.166-0.167,0.177-0.408,0.177-0.704C127.752,56.873,127.742,56.623,127.576,56.455z"/>
	<path fill="#FFFFFF" d="M131.312,61.415l0.111-0.817c0,0,1.198,0.231,2.164,0.231c0.715,0,1.55,0,1.55-0.947
		c0-0.966-0.436-0.881-1.449-0.946c-1.393-0.094-2.507-0.064-2.507-1.748c0-1.447,0.771-1.838,2.415-1.838
		c1.151,0,2.182,0.233,2.182,0.233l-0.13,0.808c0,0-1.086-0.214-1.895-0.214c-0.725,0-1.616-0.038-1.616,0.891
		c0,0.919,0.631,0.875,1.485,0.91c1.356,0.065,2.489,0.019,2.489,1.755c0,1.682-0.947,1.933-2.414,1.933
		C132.409,61.665,131.312,61.415,131.312,61.415z"/>
	<path fill="#FFFFFF" d="M141.086,61.665c-2.47,0-2.75-0.679-2.75-3.148c0-2.655,0.381-3.167,2.74-3.167
		c2.479,0,2.729,0.668,2.729,3.167S143.545,61.665,141.086,61.665z M141.077,56.159c-1.57,0-1.747,0.231-1.747,2.357
		c0,2.017,0.13,2.332,1.756,2.332c1.663,0,1.727-0.334,1.727-2.332C142.813,56.576,142.795,56.159,141.077,56.159z"/>
	<path fill="#FFFFFF" d="M152.521,56.139c-0.11,0.029-0.129,0.104-0.129,0.168V61.6h-1.914l-2.489-5.292
		c-0.056-0.13-0.092-0.177-0.213-0.177c-0.177,0-0.195,0.094-0.195,0.251v4.326c0,0.064,0.019,0.14,0.131,0.168l0.473,0.092V61.6
		h-2.107v-0.632l0.481-0.092c0.112-0.028,0.13-0.104,0.13-0.168v-4.401c0-0.063-0.018-0.139-0.13-0.168l-0.481-0.092v-0.632h2.545
		l2.469,5.218c0.057,0.122,0.103,0.177,0.214,0.177c0.177,0,0.194-0.11,0.194-0.259v-4.244c0-0.063-0.018-0.139-0.129-0.168
		l-0.482-0.092v-0.632h2.117v0.632L152.521,56.139z"/>
</g>
</svg>
