<?xml version="1.0" encoding="utf-8"?>
<!-- Generator: Adobe Illustrator 15.1.0, SVG Export Plug-In . SVG Version: 6.00 Build 0)  -->
<!DOCTYPE svg PUBLIC "-//W3C//DTD SVG 1.1//EN" "http://www.w3.org/Graphics/SVG/1.1/DTD/svg11.dtd" [
	<!ENTITY ns_flows "http://ns.adobe.com/Flows/1.0/">
	<!ENTITY ns_extend "http://ns.adobe.com/Extensibility/1.0/">
	<!ENTITY ns_ai "http://ns.adobe.com/AdobeIllustrator/10.0/">
	<!ENTITY ns_graphs "http://ns.adobe.com/Graphs/1.0/">
]>
<svg version="1.1" id="Layer_1" xmlns:x="&ns_extend;" xmlns:i="&ns_ai;" xmlns:graph="&ns_graphs;"
	 xmlns="http://www.w3.org/2000/svg" xmlns:xlink="http://www.w3.org/1999/xlink" xmlns:a="http://ns.adobe.com/AdobeSVGViewerExtensions/3.0/"
	 x="0px" y="0px" width="495.333px" height="169.333px" viewBox="0 0 495.333 169.333" enable-background="new 0 0 495.333 169.333"
	 xml:space="preserve">
<g>
	<line fill="none" stroke="#00AEEF" stroke-width="3.3707" x1="50.637" y1="89.286" x2="61.166" y2="89.286"/>
	<line fill="none" stroke="#00AEEF" stroke-width="3.3707" x1="38.146" y1="82.894" x2="48.677" y2="82.894"/>
	<line fill="none" stroke="#00AEEF" stroke-width="3.3707" x1="63.126" y1="82.9" x2="73.657" y2="82.9"/>
	<line fill="none" stroke="#00AEEF" stroke-width="3.3707" x1="38.146" y1="76.501" x2="48.677" y2="76.501"/>
	<line fill="none" stroke="#00AEEF" stroke-width="3.3707" x1="63.126" y1="76.509" x2="73.657" y2="76.509"/>
	<line fill="none" stroke="#00AEEF" stroke-width="3.3707" x1="38.146" y1="70.108" x2="48.677" y2="70.108"/>
	<line fill="none" stroke="#00AEEF" stroke-width="3.3707" x1="63.126" y1="70.117" x2="73.657" y2="70.117"/>
	<line fill="none" stroke="#00AEEF" stroke-width="3.3707" x1="38.146" y1="63.716" x2="48.677" y2="63.716"/>
	<line fill="none" stroke="#00AEEF" stroke-width="3.3707" x1="63.126" y1="63.723" x2="73.657" y2="63.723"/>
	<line fill="none" stroke="#00AEEF" stroke-width="3.3707" x1="38.146" y1="57.323" x2="48.677" y2="57.323"/>
	<line fill="none" stroke="#00AEEF" stroke-width="3.3707" x1="63.126" y1="57.327" x2="73.657" y2="57.327"/>
	<line fill="none" stroke="#00AEEF" stroke-width="3.3707" x1="38.146" y1="50.933" x2="48.677" y2="50.933"/>
	<line fill="none" stroke="#00AEEF" stroke-width="3.3707" x1="63.126" y1="50.936" x2="73.657" y2="50.936"/>
	<line fill="none" stroke="#00AEEF" stroke-width="3.3707" x1="38.146" y1="44.539" x2="48.677" y2="44.539"/>
	<line fill="none" stroke="#00AEEF" stroke-width="3.3707" x1="63.126" y1="44.54" x2="73.657" y2="44.54"/>
	<line fill="none" stroke="#00AEEF" stroke-width="3.3707" x1="50.637" y1="38.147" x2="61.166" y2="38.147"/>
	<path fill="none" stroke="#00AEEF" stroke-width="3.3707" d="M61.166,89.286"/>
	<path fill="none" stroke="#00AEEF" stroke-width="3.3707" d="M50.637,89.286"/>
	<line fill="none" stroke="#00AEEF" stroke-width="3.3707" x1="38.146" y1="89.286" x2="48.677" y2="89.286"/>
	<path fill="none" stroke="#00AEEF" stroke-width="3.3707" d="M73.657,89.286"/>
	<path fill="none" stroke="#00AEEF" stroke-width="3.3707" d="M63.126,89.286"/>
	<line fill="none" stroke="#00AEEF" stroke-width="3.3707" x1="38.146" y1="108.465" x2="48.677" y2="108.465"/>
	<line fill="none" stroke="#00AEEF" stroke-width="3.3707" x1="38.146" y1="95.681" x2="48.677" y2="95.681"/>
	<line fill="none" stroke="#00AEEF" stroke-width="3.3707" x1="38.146" y1="102.071" x2="48.677" y2="102.071"/>
	<line fill="none" stroke="#00AEEF" stroke-width="3.3707" x1="38.146" y1="114.854" x2="48.677" y2="114.854"/>
	<line fill="none" stroke="#00AEEF" stroke-width="3.3707" x1="63.126" y1="114.854" x2="73.657" y2="114.854"/>
	<line fill="none" stroke="#00AEEF" stroke-width="3.3707" x1="50.637" y1="121.247" x2="61.166" y2="121.247"/>
</g>
<rect x="4.333" y="150.263" fill="#00AEEF" width="95.667" height="14.241"/>
<g>
	<rect x="96.666" y="150.263" fill="#00AEEF" width="391.528" height="14.241"/>
	<g>
		<path fill="#00AEEF" d="M317.23,123.12l-0.091-0.011c-0.131-0.021-1.319-0.132-2.669-0.899l0,0
			c-1.345-0.725-2.882-2.455-2.841-4.989l0,0c-0.004-3.792-0.004-71.429,0-75.01l0,0c-0.039-2.477,1.541-4.141,2.867-4.819l0,0
			c1.34-0.728,2.517-0.84,2.643-0.858l0,0l0.083-0.01h0.094c0,0,16.011,0,20.226,0l0,0c2.19-0.044,3.887,1.012,4.643,2.291l0,0
			c0.773,1.256,0.833,2.467,0.843,3.101l0,0c0,0.145-0.005,0.26-0.007,0.334l0,0c-0.003,1.4-0.003,40.327-0.003,43.43l0,0
			c0.034,2.129-1.124,3.678-2.214,4.37l0,0c-1.083,0.725-2.036,0.854-2.184,0.877l0,0l-0.117,0.017l-23.504,0.003
			c0,13.442,0,24.784,0,26.273l0,0c0,1.748,1.209,2.142,2.121,2.457l0,0c0.148,0.041,0.246,0.06,0.305,0.072l0,0l19.584,0.002
			c0.035-0.002,0.099-0.006,0.186-0.002l0,0c0.182,0.006,1.178-0.049,1.891-0.4l0,0c0.709-0.412,1.109-0.652,1.17-1.954l0,0
			c0-2.214,0-7.173,0-7.173l0,0h3.371c-0.004,0.006-0.004,4.962-0.004,7.173l0,0c0.063,2.589-1.594,4.368-3.099,5.001l0,0
			c-1.476,0.684-2.832,0.713-3.305,0.719l0,0v0.002h-0.024v-0.402l-0.076,0.406H317.23L317.23,123.12z M338.204,87.575
			c0.026-0.005,0.065-0.015,0.123-0.035l0,0c0.16-0.051,0.387-0.145,0.584-0.281l0,0c0.389-0.309,0.7-0.549,0.736-1.58l0,0
			c0-3.16,0-43.423,0-43.469l0,0v-0.054l0.003-0.067c0,0,0.007-0.038,0.007-0.173l0,0c0.008-0.293-0.076-0.934-0.324-1.302l0,0
			c-0.269-0.345-0.476-0.675-1.791-0.721l0,0c-2.108,0-7.164,0-11.691,0l0,0c-4.033,0-7.645,0-8.393,0l0,0
			c-0.053,0.006-0.164,0.021-0.354,0.069l0,0c-0.27,0.071-0.645,0.196-0.975,0.38l0,0c-0.674,0.431-1.096,0.766-1.131,1.868l0,0
			c0,2.059,0,25.272,0,45.366l0,0H338.204L338.204,87.575z"/>
	</g>
	<path fill="#00AEEF" d="M202.108,38.816c-0.756-1.281-2.448-2.337-4.644-2.293c-4.213,0-20.225,0-20.225,0h-0.094l-0.083,0.012
		c-0.125,0.016-1.301,0.126-2.639,0.856c-0.429,0.217-0.88,0.549-1.299,0.969c-0.837-0.964-2.131-1.842-3.892-1.837h-6.458v3.371
		h6.458c0.775,0.005,1.216,0.418,1.692,1.172c0.212,0.359,0.372,0.754,0.466,1.047c0.042,0.125,0.069,0.222,0.087,0.292v80.511
		h3.375l-0.001-32.248l23.572-0.006l0.121-0.017c0.142-0.024,1.099-0.153,2.181-0.877c1.089-0.688,2.248-2.243,2.213-4.37V42.31
		c0.005-0.074,0.01-0.211,0.01-0.398C202.944,41.281,202.882,40.068,202.108,38.816z M199.576,42.062l-0.003,0.065v0.084
		c-0.003,0.02-0.003,10.009,0,20.407c-0.003,10.405-0.003,21.199,0,22.78c-0.034,1.03-0.351,1.269-0.734,1.579
		c-0.198,0.135-0.424,0.229-0.587,0.283c-0.062,0.02-0.104,0.029-0.132,0.035h-23.267l-0.002-44.728
		c0.026-0.119,0.072-0.23,0.072-0.357c0.035-1.103,0.454-1.44,1.13-1.87c0.333-0.184,0.705-0.309,0.975-0.378
		c0.18-0.044,0.29-0.061,0.346-0.069h20.091c1.317,0.046,1.525,0.375,1.793,0.718c0.25,0.369,0.333,1.009,0.326,1.3
		C199.584,42.04,199.573,42.062,199.576,42.062z"/>
	<path fill="#00AEEF" d="M151.466,119.631c-1.321-0.047-1.491-0.389-1.759-0.748c-0.209-0.328-0.272-0.824-0.279-0.983l0.001-0.006
		v-76.05l-0.007-0.081c-0.021-0.135-0.112-1.254-0.845-2.532c-0.685-1.279-2.357-2.724-4.766-2.683h-15.729
		c-1.698-0.038-3.013,0.711-3.854,1.613c-0.843-0.887-2.082-1.649-3.731-1.639h-16.292c-1.914,0.073-3.065,1.226-3.873,2.261
		c-0.804-1.062-2.051-2.218-3.994-2.261H89.88v3.373c0.007-0.003,3.859-0.003,6.458,0c0.347-0.049,0.991,0.396,1.533,1.241
		c0.26,0.395,0.472,0.816,0.611,1.129c0.043,0.097,0.078,0.179,0.104,0.249v80.432h3.372V42.565
		c0.033-0.071,0.059-0.128,0.108-0.226c0.24-0.487,0.667-1.224,1.133-1.75c0.479-0.551,0.911-0.723,1.005-0.694
		c2.318-0.003,14.394-0.003,16.292,0c0.827,0.01,1.244,0.419,1.713,1.16c0.205,0.355,0.358,0.744,0.448,1.034
		c0.042,0.133,0.068,0.234,0.084,0.303v80.554h3.372V42.068l-0.016-0.09l0.012,0.001c0-0.001,0-0.085,0.045-0.312
		c0.062-0.355,0.244-0.875,0.514-1.188c0.285-0.306,0.532-0.533,1.412-0.561c2.176,0,12.987,0,15.729,0.005
		c1.172,0.038,1.467,0.435,1.854,1.004c0.166,0.281,0.277,0.604,0.336,0.838c0.036,0.143,0.049,0.23,0.056,0.274v75.77l0,0
		c0,0.016,0,0.029,0,0.044c0.011,0.364,0.024,1.494,0.744,2.742c0.678,1.247,2.317,2.411,4.53,2.411c0.044,0,0.089,0,0.135-0.002
		c3.862,0,3.862,0,4.564,0v-3.367C155.328,119.631,155.332,119.631,151.466,119.631z"/>
	<path fill="#00AEEF" d="M299.42,41.913c-0.01-0.63-0.068-1.845-0.842-3.097c-0.757-1.281-2.449-2.339-4.643-2.293
		c-4.215,0-16.852,0-16.852,0c-0.203,0.013-1.424,0.058-2.834,0.711c-0.438,0.186-0.904,0.487-1.345,0.875
		c-0.889-0.902-2.233-1.624-3.967-1.588c-1.554,0-2.812,0-2.815,0.003h-1.686v3.368h1.686c0,0,1.262,0,2.815,0
		c1.304,0.056,1.532,0.462,1.908,1.071c0.153,0.306,0.247,0.657,0.293,0.917c0.048,0.262,0.034,0.359,0.044,0.359v80.759h3.373
		V42.211c-0.004-0.036-0.006-0.125-0.014-0.243c0.049-1.022,0.426-1.281,1.144-1.686c0.354-0.166,0.753-0.273,1.052-0.329
		c0.295-0.06,0.428-0.055,0.428-0.062c-0.072,0.003,3.078,0.003,6.765,0.003h10.005c1.314,0.046,1.521,0.375,1.789,0.719
		c0.25,0.367,0.334,1.006,0.326,1.3c0,0.135-0.008,0.175-0.008,0.175l-0.002,0.065v0.058c0,0,0,6.6,0,9.76h3.371
		c-0.002-3.057-0.002-9.322,0-9.737C299.417,42.16,299.42,42.051,299.42,41.913z"/>
	<path fill="#00AEEF" d="M451.403,119.668c-0.002-0.002-1.791-0.002-2.738-0.002c-1.152-0.047-1.242-0.324-1.436-0.549
		c-0.084-0.127-0.137-0.279-0.16-0.394c-0.014-0.054-0.02-0.097-0.02-0.115V42.354c-0.01-0.168-0.014-1.365-0.697-2.757
		c-0.625-1.396-2.363-2.989-4.922-2.933h-20.791c-1.623-0.026-2.865,0.689-3.703,1.579c-0.879-0.955-2.252-1.755-4.043-1.72h-4.115
		v3.369h4.115c1.225,0.049,1.479,0.456,1.871,1.089c0.164,0.314,0.27,0.672,0.322,0.937c0.051,0.267,0.045,0.372,0.057,0.372
		l-0.006,80.6h3.375l-0.004-78.45l0.045,0.002l0.057-1.684l-0.004-0.003c0,0,0.004-0.143,0.057-0.453
		c0.074-0.466,0.279-1.166,0.598-1.593c0.35-0.423,0.574-0.642,1.381-0.673h20.789c1.307,0.053,1.533,0.464,1.908,1.07
		c0.154,0.306,0.25,0.657,0.295,0.92c0.047,0.258,0.035,0.357,0.047,0.357v76.301c0.014,0.208,0.023,1.139,0.697,2.232
		c0.631,1.086,2.141,2.123,4.156,2.123c0.043,0,0.086-0.002,0.131-0.002h4.422v-3.367h-1.684V119.668z"/>
	<path fill="#00AEEF" d="M396.563,119.799c-0.057-0.008-0.158-0.028-0.316-0.069c-0.4-0.097-0.998-0.333-1.388-0.675
		c-0.364-0.348-0.608-0.68-0.649-1.471c0.002-0.057,0.014-0.107,0.012-0.166V42.422c0.043-2.536-1.497-4.265-2.84-4.989
		c-1.35-0.767-2.539-0.879-2.67-0.9l-0.096-0.01h-19.88l0,0c-0.024,0-0.051,0-0.081,0c-0.449,0.007-1.826,0.023-3.328,0.723
		c-1.504,0.632-3.158,2.413-3.102,5.001c0,2.211,0,5.687,0.003,5.687h3.367c0,0,0-3.476,0-5.687c0.06-1.303,0.461-1.543,1.174-1.957
		c0.655-0.326,1.562-0.398,1.834-0.402c0.013,0.002,0.022,0.002,0.03,0.002l0.043,0.003h19.748c0.061,0.01,0.156,0.03,0.306,0.069
		c0.915,0.317,2.12,0.713,2.123,2.459c-0.002,1.489-0.002,12.83-0.002,26.265h-23.513l-0.108,0.017
		c-0.146,0.028-1.101,0.155-2.183,0.88c-1.09,0.691-2.25,2.238-2.215,4.37v43.392c-0.008,0.087-0.015,0.212-0.015,0.368
		c0.011,0.636,0.069,1.851,0.849,3.102c0.738,1.252,2.379,2.292,4.506,2.292h0.138c4.216,0,20.224,0,20.224,0h0.094l0.084-0.008
		c0.125-0.021,1.301-0.132,2.64-0.858c0.37-0.189,0.759-0.465,1.129-0.804c0.382,0.367,0.787,0.665,1.175,0.866
		c1.329,0.734,2.492,0.838,2.617,0.855l0.08,0.01h5.117v-3.369H396.563L396.563,119.799z M389.717,119.29
		c-0.326,0.185-0.7,0.308-0.975,0.377c-0.178,0.045-0.287,0.061-0.344,0.068H368.31c-1.317-0.044-1.528-0.374-1.796-0.719
		c-0.249-0.367-0.333-1.01-0.324-1.303c0-0.09,0.007-0.09,0-0.09l0.014-0.113v-0.092c0,0,0-40.307,0-43.465
		c0.034-1.03,0.35-1.271,0.733-1.582c0.199-0.133,0.423-0.227,0.586-0.28c0.058-0.018,0.097-0.03,0.125-0.035h23.203
		c0,9.492-0.001,19.68,0,28.006h-0.024v17.418c0,0.03,0.006,0.056,0.006,0.086C390.758,118.538,390.359,118.881,389.717,119.29z"/>
	<path fill="#00AEEF" d="M253.565,117.542V36.517h-3.371v51.062l-24.436-0.004c-0.026-0.007-0.063-0.018-0.113-0.035
		c-0.552-0.26-1.284-0.426-1.318-1.86l-0.044-24.019V42.211c0,0,0-0.034,0-0.097c-0.011-0.461-0.036-1.687-0.777-3.017
		c-0.711-1.348-2.462-2.628-4.842-2.573c-0.381-0.003-2.258-0.003-2.258,0h-1.686v3.371h1.686v-0.003c0,0,0.469,0,0.985,0.003
		c0.517-0.003,1.082-0.003,1.272-0.003c1.381,0.054,1.592,0.426,1.911,0.874c0.284,0.471,0.344,1.2,0.336,1.348
		c0,0.062,0,0.097,0,0.097v19.453l0.045,24.018c-0.034,2.125,1.124,3.675,2.213,4.367c1.086,0.724,2.04,0.853,2.186,0.88
		l0.114,0.017h24.726v26.739l0.008,0.065c0,0,0.002,0.017,0.002,0.125c0.008,0.264-0.064,0.873-0.252,1.191
		c-0.229,0.301-0.191,0.428-1.021,0.487c-2.305-0.003-22.878-0.003-24.872-0.003c-0.024-0.008-0.057-0.018-0.1-0.031
		c-0.552-0.262-1.285-0.428-1.32-1.863l-0.046-7.55l-3.368,0.021l0.046,7.539c-0.035,2.121,1.123,3.67,2.211,4.361
		c1.084,0.725,2.04,0.854,2.183,0.877l0.129,0.02h0.111c0.023-0.002,22.604-0.002,25.026-0.002c1.909,0.06,3.421-1.082,3.987-2.26
		c0.607-1.154,0.646-2.224,0.653-2.787C253.573,117.722,253.568,117.608,253.565,117.542z"/>
</g>
<g>
	<rect x="99.666" y="150.263" fill="#B2D235" width="391.528" height="14.241"/>
	<g>
		<path fill="#B2D235" d="M320.23,123.12l-0.091-0.011c-0.131-0.021-1.319-0.132-2.669-0.899l0,0
			c-1.345-0.725-2.882-2.455-2.841-4.989l0,0c-0.004-3.792-0.004-71.429,0-75.01l0,0c-0.039-2.477,1.541-4.141,2.867-4.819l0,0
			c1.34-0.728,2.517-0.84,2.643-0.858l0,0l0.083-0.01h0.094c0,0,16.011,0,20.226,0l0,0c2.19-0.044,3.887,1.012,4.643,2.291l0,0
			c0.773,1.256,0.833,2.467,0.843,3.101l0,0c0,0.145-0.005,0.26-0.007,0.334l0,0c-0.003,1.4-0.003,40.327-0.003,43.43l0,0
			c0.034,2.129-1.124,3.678-2.214,4.37l0,0c-1.083,0.725-2.036,0.854-2.184,0.877l0,0l-0.117,0.017l-23.504,0.003
			c0,13.442,0,24.784,0,26.273l0,0c0,1.748,1.209,2.142,2.121,2.457l0,0c0.148,0.041,0.246,0.06,0.305,0.072l0,0l19.584,0.002
			c0.035-0.002,0.099-0.006,0.186-0.002l0,0c0.182,0.006,1.178-0.049,1.891-0.4l0,0c0.709-0.412,1.109-0.652,1.17-1.954l0,0
			c0-2.214,0-7.173,0-7.173l0,0h3.371c-0.004,0.006-0.004,4.962-0.004,7.173l0,0c0.063,2.589-1.594,4.368-3.099,5.001l0,0
			c-1.476,0.684-2.832,0.713-3.305,0.719l0,0v0.002h-0.024v-0.402l-0.076,0.406H320.23L320.23,123.12z M341.204,87.575
			c0.026-0.005,0.065-0.015,0.123-0.035l0,0c0.16-0.051,0.387-0.145,0.584-0.281l0,0c0.389-0.309,0.7-0.549,0.736-1.58l0,0
			c0-3.16,0-43.423,0-43.469l0,0v-0.054l0.003-0.067c0,0,0.007-0.038,0.007-0.173l0,0c0.008-0.293-0.076-0.934-0.324-1.302l0,0
			c-0.269-0.345-0.476-0.675-1.791-0.721l0,0c-2.108,0-7.164,0-11.691,0l0,0c-4.033,0-7.645,0-8.393,0l0,0
			c-0.053,0.006-0.164,0.021-0.354,0.069l0,0c-0.27,0.071-0.645,0.196-0.975,0.38l0,0c-0.674,0.431-1.096,0.766-1.131,1.868l0,0
			c0,2.059,0,25.272,0,45.366l0,0H341.204L341.204,87.575z"/>
	</g>
	<path fill="#B2D235" d="M205.108,38.816c-0.756-1.281-2.448-2.337-4.644-2.293c-4.213,0-20.225,0-20.225,0h-0.094l-0.083,0.012
		c-0.125,0.016-1.301,0.126-2.639,0.856c-0.429,0.217-0.88,0.549-1.299,0.969c-0.837-0.964-2.131-1.842-3.892-1.837h-6.458v3.371
		h6.458c0.775,0.005,1.216,0.418,1.692,1.172c0.212,0.359,0.372,0.754,0.466,1.047c0.042,0.125,0.069,0.222,0.087,0.292v80.511
		h3.375l-0.001-32.248l23.572-0.006l0.121-0.017c0.142-0.024,1.099-0.153,2.181-0.877c1.089-0.688,2.248-2.243,2.213-4.37V42.31
		c0.005-0.074,0.01-0.211,0.01-0.398C205.944,41.281,205.882,40.068,205.108,38.816z M202.576,42.062l-0.003,0.065v0.084
		c-0.003,0.02-0.003,10.009,0,20.407c-0.003,10.405-0.003,21.199,0,22.78c-0.034,1.03-0.351,1.269-0.734,1.579
		c-0.198,0.135-0.424,0.229-0.587,0.283c-0.062,0.02-0.104,0.029-0.132,0.035h-23.267l-0.002-44.728
		c0.026-0.119,0.072-0.23,0.072-0.357c0.035-1.103,0.454-1.44,1.13-1.87c0.333-0.184,0.705-0.309,0.975-0.378
		c0.18-0.044,0.29-0.061,0.346-0.069h20.091c1.317,0.046,1.525,0.375,1.793,0.718c0.25,0.369,0.333,1.009,0.326,1.3
		C202.584,42.04,202.573,42.062,202.576,42.062z"/>
	<path fill="#B2D235" d="M154.466,119.631c-1.321-0.047-1.491-0.389-1.759-0.748c-0.209-0.328-0.272-0.824-0.279-0.983l0.001-0.006
		v-76.05l-0.007-0.081c-0.021-0.135-0.112-1.254-0.845-2.532c-0.685-1.279-2.357-2.724-4.766-2.683h-15.729
		c-1.698-0.038-3.013,0.711-3.854,1.613c-0.843-0.887-2.082-1.649-3.731-1.639h-16.292c-1.914,0.073-3.065,1.226-3.873,2.261
		c-0.804-1.062-2.051-2.218-3.994-2.261H92.88v3.373c0.007-0.003,3.859-0.003,6.458,0c0.347-0.049,0.991,0.396,1.533,1.241
		c0.26,0.395,0.472,0.816,0.611,1.129c0.043,0.097,0.078,0.179,0.104,0.249v80.432h3.372V42.565
		c0.033-0.071,0.059-0.128,0.108-0.226c0.24-0.487,0.667-1.224,1.133-1.75c0.479-0.551,0.911-0.723,1.005-0.694
		c2.318-0.003,14.394-0.003,16.292,0c0.827,0.01,1.244,0.419,1.713,1.16c0.205,0.355,0.358,0.744,0.448,1.034
		c0.042,0.133,0.068,0.234,0.084,0.303v80.554h3.372V42.068l-0.016-0.09l0.012,0.001c0-0.001,0-0.085,0.045-0.312
		c0.062-0.355,0.244-0.875,0.514-1.188c0.285-0.306,0.532-0.533,1.412-0.561c2.176,0,12.987,0,15.729,0.005
		c1.172,0.038,1.467,0.435,1.854,1.004c0.166,0.281,0.277,0.604,0.336,0.838c0.036,0.143,0.049,0.23,0.056,0.274v75.77l0,0
		c0,0.016,0,0.029,0,0.044c0.011,0.364,0.024,1.494,0.744,2.742c0.678,1.247,2.317,2.411,4.53,2.411c0.044,0,0.089,0,0.135-0.002
		c3.862,0,3.862,0,4.564,0v-3.367C158.328,119.631,158.332,119.631,154.466,119.631z"/>
	<path fill="#B2D235" d="M302.42,41.913c-0.01-0.63-0.068-1.845-0.842-3.097c-0.757-1.281-2.449-2.339-4.643-2.293
		c-4.215,0-16.852,0-16.852,0c-0.203,0.013-1.424,0.058-2.834,0.711c-0.438,0.186-0.904,0.487-1.345,0.875
		c-0.889-0.902-2.233-1.624-3.967-1.588c-1.554,0-2.812,0-2.815,0.003h-1.686v3.368h1.686c0,0,1.262,0,2.815,0
		c1.304,0.056,1.532,0.462,1.908,1.071c0.153,0.306,0.247,0.657,0.293,0.917c0.048,0.262,0.034,0.359,0.044,0.359v80.759h3.373
		V42.211c-0.004-0.036-0.006-0.125-0.014-0.243c0.049-1.022,0.426-1.281,1.144-1.686c0.354-0.166,0.753-0.273,1.052-0.329
		c0.295-0.06,0.428-0.055,0.428-0.062c-0.072,0.003,3.078,0.003,6.765,0.003h10.005c1.314,0.046,1.521,0.375,1.789,0.719
		c0.25,0.367,0.334,1.006,0.326,1.3c0,0.135-0.008,0.175-0.008,0.175l-0.002,0.065v0.058c0,0,0,6.6,0,9.76h3.371
		c-0.002-3.057-0.002-9.322,0-9.737C302.417,42.16,302.42,42.051,302.42,41.913z"/>
	<path fill="#B2D235" d="M454.403,119.668c-0.002-0.002-1.791-0.002-2.738-0.002c-1.152-0.047-1.242-0.324-1.436-0.549
		c-0.084-0.127-0.137-0.279-0.16-0.394c-0.014-0.054-0.02-0.097-0.02-0.115V42.354c-0.01-0.168-0.014-1.365-0.697-2.757
		c-0.625-1.396-2.363-2.989-4.922-2.933h-20.791c-1.623-0.026-2.865,0.689-3.703,1.579c-0.879-0.955-2.252-1.755-4.043-1.72h-4.115
		v3.369h4.115c1.225,0.049,1.479,0.456,1.871,1.089c0.164,0.314,0.27,0.672,0.322,0.937c0.051,0.267,0.045,0.372,0.057,0.372
		l-0.006,80.6h3.375l-0.004-78.45l0.045,0.002l0.057-1.684l-0.004-0.003c0,0,0.004-0.143,0.057-0.453
		c0.074-0.466,0.279-1.166,0.598-1.593c0.35-0.423,0.574-0.642,1.381-0.673h20.789c1.307,0.053,1.533,0.464,1.908,1.07
		c0.154,0.306,0.25,0.657,0.295,0.92c0.047,0.258,0.035,0.357,0.047,0.357v76.301c0.014,0.208,0.023,1.139,0.697,2.232
		c0.631,1.086,2.141,2.123,4.156,2.123c0.043,0,0.086-0.002,0.131-0.002h4.422v-3.367h-1.684V119.668z"/>
	<path fill="#B2D235" d="M399.563,119.799c-0.057-0.008-0.158-0.028-0.316-0.069c-0.4-0.097-0.998-0.333-1.387-0.675
		c-0.365-0.348-0.609-0.68-0.65-1.471c0.002-0.057,0.014-0.107,0.012-0.166V42.422c0.043-2.536-1.497-4.265-2.84-4.989
		c-1.35-0.767-2.539-0.879-2.67-0.9l-0.096-0.01h-19.88l0,0c-0.024,0-0.051,0-0.081,0c-0.449,0.007-1.826,0.023-3.328,0.723
		c-1.504,0.632-3.158,2.413-3.102,5.001c0,2.211,0,5.687,0.003,5.687h3.367c0,0,0-3.476,0-5.687c0.06-1.303,0.461-1.543,1.174-1.957
		c0.655-0.326,1.562-0.398,1.834-0.402c0.013,0.002,0.022,0.002,0.03,0.002l0.043,0.003h19.748c0.061,0.01,0.156,0.03,0.306,0.069
		c0.915,0.317,2.12,0.713,2.123,2.459c-0.002,1.489-0.002,12.83-0.002,26.265h-23.513l-0.108,0.017
		c-0.146,0.028-1.101,0.155-2.183,0.88c-1.09,0.691-2.25,2.238-2.215,4.37v43.392c-0.008,0.087-0.015,0.212-0.015,0.368
		c0.011,0.636,0.069,1.851,0.849,3.102c0.738,1.252,2.379,2.292,4.506,2.292h0.138c4.216,0,20.224,0,20.224,0h0.094l0.084-0.008
		c0.125-0.021,1.301-0.132,2.64-0.858c0.37-0.189,0.759-0.465,1.129-0.804c0.382,0.367,0.786,0.665,1.175,0.866
		c1.33,0.734,2.492,0.838,2.617,0.855l0.08,0.01h5.117v-3.369H399.563L399.563,119.799z M392.717,119.29
		c-0.326,0.185-0.7,0.308-0.975,0.377c-0.178,0.045-0.287,0.061-0.344,0.068H371.31c-1.317-0.044-1.528-0.374-1.796-0.719
		c-0.249-0.367-0.333-1.01-0.324-1.303c0-0.09,0.007-0.09,0-0.09l0.014-0.113v-0.092c0,0,0-40.307,0-43.465
		c0.034-1.03,0.35-1.271,0.733-1.582c0.199-0.133,0.423-0.227,0.586-0.28c0.058-0.018,0.097-0.03,0.125-0.035h23.203
		c0,9.492-0.001,19.68,0,28.006h-0.024v17.418c0,0.03,0.006,0.056,0.006,0.086C393.758,118.538,393.359,118.881,392.717,119.29z"/>
	<path fill="#B2D235" d="M256.565,117.542V36.517h-3.371v51.062l-24.436-0.004c-0.026-0.007-0.063-0.018-0.113-0.035
		c-0.552-0.26-1.284-0.426-1.318-1.86l-0.044-24.019V42.211c0,0,0-0.034,0-0.097c-0.011-0.461-0.036-1.687-0.777-3.017
		c-0.711-1.348-2.462-2.628-4.842-2.573c-0.381-0.003-2.258-0.003-2.258,0h-1.686v3.371h1.686v-0.003c0,0,0.469,0,0.985,0.003
		c0.517-0.003,1.082-0.003,1.272-0.003c1.381,0.054,1.592,0.426,1.911,0.874c0.284,0.471,0.344,1.2,0.336,1.348
		c0,0.062,0,0.097,0,0.097v19.453l0.045,24.018c-0.034,2.125,1.124,3.675,2.213,4.367c1.086,0.724,2.04,0.853,2.186,0.88
		l0.114,0.017h24.726v26.739l0.008,0.065c0,0,0.002,0.017,0.002,0.125c0.008,0.264-0.064,0.873-0.252,1.191
		c-0.229,0.301-0.191,0.428-1.021,0.487c-2.306-0.003-22.878-0.003-24.872-0.003c-0.024-0.008-0.057-0.018-0.1-0.031
		c-0.552-0.262-1.285-0.428-1.32-1.863l-0.046-7.55l-3.368,0.021l0.046,7.539c-0.035,2.121,1.123,3.67,2.211,4.361
		c1.084,0.725,2.04,0.854,2.183,0.877l0.129,0.02h0.111c0.023-0.002,22.604-0.002,25.026-0.002c1.909,0.06,3.421-1.082,3.987-2.26
		c0.607-1.154,0.646-2.224,0.653-2.787C256.573,117.722,256.568,117.608,256.565,117.542z"/>
</g>
<g>
	<line fill="none" stroke="#B2D235" stroke-width="3.3707" x1="59.792" y1="89.286" x2="70.321" y2="89.286"/>
	<line fill="none" stroke="#B2D235" stroke-width="3.3707" x1="43.765" y1="82.894" x2="54.295" y2="82.894"/>
	<line fill="none" stroke="#B2D235" stroke-width="3.3707" x1="68.746" y1="82.9" x2="79.276" y2="82.9"/>
	<line fill="none" stroke="#B2D235" stroke-width="3.3707" x1="43.765" y1="76.501" x2="54.295" y2="76.501"/>
	<line fill="none" stroke="#B2D235" stroke-width="3.3707" x1="68.746" y1="76.509" x2="79.276" y2="76.509"/>
	<line fill="none" stroke="#B2D235" stroke-width="3.3707" x1="43.765" y1="70.108" x2="54.295" y2="70.108"/>
	<line fill="none" stroke="#B2D235" stroke-width="3.3707" x1="68.746" y1="70.117" x2="79.276" y2="70.117"/>
	<line fill="none" stroke="#B2D235" stroke-width="3.3707" x1="43.765" y1="63.716" x2="54.295" y2="63.716"/>
	<line fill="none" stroke="#B2D235" stroke-width="3.3707" x1="68.746" y1="63.723" x2="79.276" y2="63.723"/>
	<line fill="none" stroke="#B2D235" stroke-width="3.3707" x1="43.765" y1="57.323" x2="54.295" y2="57.323"/>
	<line fill="none" stroke="#B2D235" stroke-width="3.3707" x1="68.746" y1="57.327" x2="79.276" y2="57.327"/>
	<line fill="none" stroke="#B2D235" stroke-width="3.3707" x1="43.765" y1="50.933" x2="54.295" y2="50.933"/>
	<line fill="none" stroke="#B2D235" stroke-width="3.3707" x1="68.746" y1="50.936" x2="79.276" y2="50.936"/>
	<line fill="none" stroke="#B2D235" stroke-width="3.3707" x1="43.765" y1="44.539" x2="54.295" y2="44.539"/>
	<line fill="none" stroke="#B2D235" stroke-width="3.3707" x1="68.746" y1="44.54" x2="79.276" y2="44.54"/>
	<line fill="none" stroke="#B2D235" stroke-width="3.3707" x1="56.256" y1="38.147" x2="66.785" y2="38.147"/>
	<path fill="none" stroke="#B2D235" stroke-width="3.3707" d="M66.785,89.286"/>
	<path fill="none" stroke="#B2D235" stroke-width="3.3707" d="M56.256,89.286"/>
	<line fill="none" stroke="#B2D235" stroke-width="3.3707" x1="43.765" y1="89.286" x2="54.295" y2="89.286"/>
	<path fill="none" stroke="#B2D235" stroke-width="3.3707" d="M79.276,89.286"/>
	<path fill="none" stroke="#B2D235" stroke-width="3.3707" d="M68.746,89.286"/>
	<line fill="none" stroke="#B2D235" stroke-width="3.3707" x1="43.765" y1="108.465" x2="54.295" y2="108.465"/>
	<line fill="none" stroke="#B2D235" stroke-width="3.3707" x1="43.765" y1="95.681" x2="54.295" y2="95.681"/>
	<line fill="none" stroke="#B2D235" stroke-width="3.3707" x1="43.765" y1="102.071" x2="54.295" y2="102.071"/>
	<line fill="none" stroke="#B2D235" stroke-width="3.3707" x1="43.765" y1="114.854" x2="54.295" y2="114.854"/>
	<line fill="none" stroke="#B2D235" stroke-width="3.3707" x1="68.746" y1="114.854" x2="79.276" y2="114.854"/>
	<line fill="none" stroke="#B2D235" stroke-width="3.3707" x1="56.256" y1="121.247" x2="66.785" y2="121.247"/>
</g>
<g>
	<path d="M461.286,118.61v-0.566h4.045v0.566h-1.688v4.49h-0.672v-4.49H461.286z"/>
	<path d="M466.823,118.043l1.594,4.248l1.6-4.248h0.922v5.057h-0.637v-4.207h-0.016l-1.578,4.207h-0.574l-1.578-4.207h-0.016v4.207
		h-0.637v-5.057H466.823z"/>
</g>
<g>
	<g>
		<g>
			<path fill="none" stroke="#00AEEF" stroke-width="3.0041" d="M6.363,164.504c-1.117,0-2.03-0.914-2.03-2.03V6.697
				c0-1.117,0.914-2.03,2.03-2.03h482.8c1.117,0,2.031,0.914,2.031,2.03v155.777c0,1.116-0.914,2.03-2.031,2.03H6.363z"/>
		</g>
	</g>
</g>
<rect x="755" y="133.333" fill="none" width="222" height="98.668"/>
<text transform="matrix(1 0 0 1 755.0005 141.853)" font-family="'MyriadPro-Regular'" font-size="12">GREEN - Pantone </text>
<text transform="matrix(1 0 0 1 842.2876 141.853)" fill="#27503E" font-family="'MyriadPro-Regular'" font-size="12">396</text>
<text transform="matrix(1 0 0 1 755.0005 156.2534)" fill="#27503E" font-family="'MyriadPro-Regular'" font-size="12">BLUE - Pantone 306</text>
</svg>
