<?xml version="1.0" encoding="utf-8"?>
<!-- Generator: Adobe Illustrator 15.1.0, SVG Export Plug-In . SVG Version: 6.00 Build 0)  -->
<!DOCTYPE svg PUBLIC "-//W3C//DTD SVG 1.1//EN" "http://www.w3.org/Graphics/SVG/1.1/DTD/svg11.dtd" [
	<!ENTITY ns_flows "http://ns.adobe.com/Flows/1.0/">
	<!ENTITY ns_extend "http://ns.adobe.com/Extensibility/1.0/">
	<!ENTITY ns_ai "http://ns.adobe.com/AdobeIllustrator/10.0/">
	<!ENTITY ns_graphs "http://ns.adobe.com/Graphs/1.0/">
]>
<svg version="1.1" id="Layer_1" xmlns:x="&ns_extend;" xmlns:i="&ns_ai;" xmlns:graph="&ns_graphs;"
	 xmlns="http://www.w3.org/2000/svg" xmlns:xlink="http://www.w3.org/1999/xlink" xmlns:a="http://ns.adobe.com/AdobeSVGViewerExtensions/3.0/"
	 x="0px" y="0px" width="583px" height="132px" viewBox="0 0 583 132" enable-background="new 0 0 583 132" xml:space="preserve">
<g>
	<rect x="10.622" y="7.636" fill="none" width="568.703" height="111.423"/>
	<path d="M555.562,95.645V94.77h-4.313h-1.146h-1.417v24.108h1.417h1.146h4.313v-0.845h-4.313v-11.588l3.259-0.813v-0.845
		l-3.259,0.814v-9.959h4.313V95.645z M539.254,107.381l-4.466,1.086c-0.273,0.094-0.483,0.121-0.633,0.151v0.03v0.783v0.062
		c1.056-0.331,1.598-0.212,1.598,0.604v2.202v4.313c0,1.449-0.996,1.691-1.63,1.691c-0.664,0-1.658-0.242-1.658-1.691V97.062
		c0-1.448,0.994-1.722,1.658-1.722c0.634,0,1.63,0.272,1.63,1.722v5.279l0.785-0.15l1.508-0.394c0.213-0.06,0.302-0.21,0.302-0.481
		v-4.135c0-0.271-0.121-0.513-0.36-0.664l-0.483-0.33c-1.841-1.207-2.384-1.541-3.38-1.541c-0.965,0-1.568,0.334-3.409,1.541
		l-0.482,0.33c-0.241,0.151-0.36,0.394-0.36,0.664v19.312c0,0.333,0.15,0.543,0.36,0.664l0.665,0.452
		c0.482,0.334,0.876,0.576,1.206,0.785v0.03c0.846,0.482,1.327,0.604,2.021,0.604c0.634,0,1.177-0.122,1.99-0.604v-0.03h0.031
		c0.334-0.209,0.725-0.451,1.179-0.785l0.663-0.452c0.239-0.15,0.36-0.36,0.36-0.664v-2.533v-0.755v-2.415
		c0-0.873-0.027-1.447-1.023-1.81l-0.546-0.182l2.477-0.633v-0.785H539.254z M517.863,118.878h2.626l-3.229-20.215l-0.632-4.045
		h-0.062l-0.361,0.091l-0.423,0.089l-0.754,0.213l-0.786,0.183c-0.181,0.089-0.302,0.182-0.363,0.332l-0.059,0.328l-3.529,23.024
		h0.904l1.026-6.487l4.435-1.115L517.863,118.878z M512.372,111.484l2.144-14.394l1.99,13.339L512.372,111.484z M499.307,102.734
		l1.508-0.393c0.15-0.091,0.303-0.271,0.303-0.482v-4.586c0-0.241-0.151-0.545-0.361-0.693l-0.483-0.303
		c-1.842-1.358-2.505-1.659-3.471-1.659c-0.633,0-1.146,0.091-1.899,0.573l-0.574,0.361c-0.36,0.24-0.903,0.543-1.508,0.996
		c-0.212,0.151-0.331,0.331-0.331,0.604v4.104c0,0.212,0.09,0.514,0.182,0.727l5.672,10.529c0.089,0.211,0.181,0.482,0.181,0.693
		v3.139c0,1.689-1.235,1.99-1.721,1.99c-0.48,0-1.72-0.301-1.72-2.021v-3.922l-0.784-1.447l-1.509,0.393
		c-0.151,0.091-0.301,0.27-0.301,0.48v4.617c0,0.211,0.148,0.515,0.36,0.664l0.663,0.424c1.749,1.205,2.354,1.537,3.289,1.537
		c0.966,0,1.568-0.332,3.32-1.537l0.663-0.453c0.213-0.151,0.332-0.332,0.332-0.604v-4.104c0-0.211-0.091-0.514-0.183-0.726
		l-5.674-10.528c-0.089-0.213-0.18-0.484-0.18-0.695v-3.077c0-1.69,1.238-1.992,1.72-1.992c0.484,0,1.721,0.302,1.721,1.992v3.953
		L499.307,102.734z M480.953,102.734l1.507-0.393c0.151-0.091,0.303-0.271,0.303-0.482v-4.586c0-0.241-0.15-0.545-0.362-0.693
		l-0.482-0.303c-1.841-1.358-2.506-1.659-3.469-1.659c-0.636,0-1.147,0.091-1.902,0.573l-0.572,0.361
		c-0.361,0.24-0.906,0.543-1.51,0.996c-0.21,0.151-0.331,0.331-0.331,0.604v4.104c0,0.212,0.09,0.514,0.182,0.727l5.672,10.529
		c0.091,0.211,0.182,0.482,0.182,0.693v3.139c0,1.689-1.237,1.99-1.719,1.99c-0.483,0-1.722-0.301-1.722-2.021v-3.922l-0.783-1.447
		l-1.51,0.393c-0.149,0.091-0.302,0.27-0.302,0.48v4.617c0,0.211,0.151,0.515,0.362,0.664l0.663,0.424
		c1.75,1.205,2.354,1.537,3.29,1.537c0.963,0,1.567-0.332,3.318-1.537l0.664-0.453c0.21-0.151,0.331-0.332,0.331-0.604v-4.104
		c0-0.211-0.092-0.514-0.182-0.726l-5.673-10.528c-0.091-0.213-0.182-0.484-0.182-0.695v-3.077c0-1.69,1.237-1.992,1.722-1.992
		c0.48,0,1.719,0.302,1.719,1.992v3.953L480.953,102.734z M462.246,118.878h2.624l-3.229-20.215l-0.633-4.045h-0.06l-0.363,0.091
		l-0.422,0.089l-0.754,0.213l-0.784,0.183c-0.182,0.089-0.303,0.182-0.363,0.332l-0.06,0.328l-3.531,23.024h0.905l1.024-6.487
		l4.437-1.115L462.246,118.878z M456.752,111.484l2.146-14.394l1.989,13.339L456.752,111.484z M443.46,94.77
		c-1.448,0-1.75,0.965-1.9,2.021l-0.334,2.144c-0.331,2.021-0.874,5.793-1.93,13.125l-0.271,1.812l-2.597-17.019
		c-0.331-1.961-1.206-2.082-2.895-2.082h-0.876v0.028v0.728v23.354h0.876V96.943c0.33,0.089,0.421,0.33,0.512,1.021l2.655,17.292
		l0.573,3.62h0.061l1.538-0.395c0.181-0.027,0.302-0.149,0.361-0.33l0.062-0.301l2.474-16.929c0.213-1.54,0.363-2.534,0.394-2.959
		c0.151-1.085,0.421-1.146,0.544-1.114v22.026l0.423-0.089l0.572-0.152l0.423-0.09l0.755-0.213c0.241-0.091,0.422-0.301,0.422-0.512
		V94.77H443.46z M412.805,102.734l1.511-0.393c0.15-0.091,0.302-0.271,0.302-0.482v-4.586c0-0.241-0.15-0.545-0.363-0.693
		l-0.481-0.303c-1.842-1.358-2.504-1.659-3.472-1.659c-0.634,0-1.146,0.091-1.897,0.573l-0.574,0.361
		c-0.362,0.24-0.905,0.543-1.51,0.996c-0.21,0.151-0.331,0.331-0.331,0.604v4.104c0,0.212,0.09,0.514,0.181,0.727l5.674,10.529
		c0.089,0.211,0.179,0.482,0.179,0.693v3.139c0,1.689-1.234,1.99-1.72,1.99c-0.48,0-1.719-0.301-1.719-2.021v-3.922l-0.783-1.447
		l-1.51,0.393c-0.15,0.091-0.302,0.27-0.302,0.48v4.617c0,0.211,0.15,0.515,0.36,0.664l0.664,0.424
		c1.75,1.205,2.354,1.537,3.288,1.537c0.968,0,1.57-0.332,3.32-1.537l0.665-0.453c0.21-0.151,0.331-0.332,0.331-0.604v-4.104
		c0-0.211-0.091-0.514-0.182-0.726l-5.674-10.528c-0.089-0.213-0.181-0.484-0.181-0.695v-3.077c0-1.69,1.237-1.992,1.719-1.992
		c0.484,0,1.72,0.302,1.72,1.992v3.953L412.805,102.734z M397.059,94.77h-8.599v0.875h3.017v23.233l0.394-0.089h0.028l0.545-0.152
		l0.423-0.09l0.753-0.213c0.242-0.091,0.424-0.301,0.424-0.512V95.645h3.017L397.059,94.77L397.059,94.77z M379.456,115.198
		c-0.24-1.3-0.571-3.261-1.056-6.156c-0.24-1.419-0.694-1.75-1.27-1.962l-0.148-0.062c0.061,0,0.088,0,0.121-0.028
		c1.599-0.482,2.594-0.663,2.594-2.202v-0.09v-4.196c0-2.474,0.031-3.59-1.088-4.465c-0.029-0.03-0.059-0.062-0.088-0.062
		l-0.272-0.182c-0.604-0.452-1.599-0.996-3.288-0.996l-2.052-0.029h-1.812v24.109l0.424-0.089l0.543-0.151l0.422-0.091l0.783-0.213
		c0.272-0.091,0.394-0.242,0.394-0.513v-9.959c0.271-0.09,0.515-0.09,0.845-0.18c0.03,0,0.092,0,0.12-0.029
		c0.813-0.151,0.998,0.091,1.271,0.845c0.722,4.737,1.146,7.183,1.386,8.479l0.213,1.389c0.091,0.333,0.239,0.513,0.452,0.604
		l2.23-0.544c-0.24-0.149-0.271-0.665-0.361-1.356L379.456,115.198z M373.663,95.493h1.418c0.784,0,1.812,0.18,2.051,1.297v7.876
		c0,1.207-0.3,1.688-1.748,2.021l-1.721,0.361V95.493z M360.391,96.188c-1.842-1.207-2.384-1.539-3.379-1.539
		c-0.937,0-1.599,0.332-3.381,1.539l-0.48,0.33c-0.242,0.152-0.361,0.363-0.361,0.666v19.311c0,0.304,0.119,0.514,0.361,0.664
		l0.664,0.453c0.451,0.332,0.846,0.574,1.176,0.785h0.031v0.029c0.812,0.482,1.295,0.605,1.99,0.605c0.694,0,1.178-0.123,1.99-0.605
		c0.031,0,0.031,0,0.031-0.029c0.332-0.211,0.724-0.453,1.208-0.785l0.661-0.453c0.212-0.15,0.332-0.36,0.332-0.664v-1.537v-1.568
		V97.184c0-0.303-0.12-0.514-0.332-0.666L360.391,96.188z M357.012,118.307c-0.634,0-1.658-0.242-1.658-1.691V97.062
		c0-1.448,1.024-1.722,1.658-1.722c0.635,0,1.658,0.272,1.658,1.722v16.354v0.963v2.234
		C358.67,118.062,357.646,118.307,357.012,118.307 M343.193,100.501c0-2.474,0.029-3.59-1.086-4.465
		c-0.031-0.03-0.092-0.062-0.121-0.062l-0.241-0.182c-0.604-0.452-1.599-0.996-3.289-0.996l-2.052-0.029h-1.812v24.109l0.424-0.089
		l0.545-0.152l0.42-0.09l0.785-0.213c0.271-0.091,0.394-0.242,0.394-0.513v-8.6c1.056-0.24,2.685-0.635,3.438-0.875
		c1.6-0.484,2.596-0.664,2.596-2.203l-0.03-0.029c0.03-0.03,0.03-0.062,0.03-0.09V100.501L343.193,100.501z M337.158,108.378V95.493
		h1.388c0.847,0,1.812,0.18,2.052,1.297v9.233c0,1.207-0.271,1.688-1.72,2.021L337.158,108.378z M323.234,102.734l1.509-0.393
		c0.149-0.091,0.301-0.271,0.301-0.482v-4.586c0-0.241-0.151-0.545-0.362-0.693l-0.481-0.303c-1.841-1.358-2.507-1.659-3.47-1.659
		c-0.636,0-1.146,0.091-1.9,0.573l-0.575,0.361c-0.36,0.24-0.905,0.543-1.508,0.996c-0.211,0.151-0.331,0.331-0.331,0.604v4.104
		c0,0.212,0.089,0.514,0.18,0.727l5.674,10.529c0.09,0.211,0.182,0.482,0.182,0.693v3.139c0,1.689-1.238,1.99-1.721,1.99
		s-1.72-0.301-1.72-2.021v-3.922l-0.784-1.447l-1.508,0.393c-0.152,0.091-0.303,0.27-0.303,0.48v4.617
		c0,0.211,0.15,0.515,0.361,0.664l0.664,0.424c1.75,1.205,2.354,1.537,3.289,1.537c0.963,0,1.566-0.332,3.318-1.537l0.662-0.453
		c0.212-0.151,0.333-0.332,0.333-0.604v-4.104c0-0.211-0.091-0.514-0.181-0.726l-5.672-10.528c-0.092-0.213-0.183-0.484-0.183-0.695
		v-3.077c0-1.69,1.236-1.992,1.72-1.992c0.481,0,1.721,0.302,1.721,1.992v3.953L323.234,102.734z M298.434,111.667
		c0.211-0.362,0.33-0.755,0.394-1.177c0.09-0.727-0.031-1.69-0.847-2.746l-2.264,3.621c-0.24-0.514-0.543-1.025-0.812-1.631
		l-2.053-4.225l1.811-2.716c0.693-1.056,0.783-2.081,0.783-2.926c0-1.327-0.936-3.261-3.59-3.261s-3.651,2.175-3.651,3.381
		c0,0.904-0.03,1.537,0.603,2.746l1.208,2.504l-2.746,4.224c-0.091,0.151-0.15,0.454-0.15,0.664v4.587
		c0,0.271,0.09,0.452,0.271,0.544l1.418,0.937l0.514,0.33c0.694,0.453,1.297,0.545,1.871,0.545c0.724,0,1.116-0.152,1.81-0.424
		s1.569-0.634,2.293-1.086c1.298,1.69,2.565,2.322,4.255,2.322v-0.543c-1.027,0-1.418-0.754-2.626-3.408L298.434,111.667z
		 M289.984,99.627c-0.814-1.689,0.513-2.414,1.871-2.414c1.357,0,2.866,0.753,1.78,2.414l-2.081,3.199L289.984,99.627z
		 M291.191,116.404c-0.482,0-1.69-0.271-1.69-1.871v-3.621c0-0.241,0.061-0.451,0.15-0.664l1.599-2.385l1.327,2.777
		c0.573,1.205,1.057,2.231,1.569,3.168C293.092,115.498,292.52,116.404,291.191,116.404 M270.312,94.77h-8.599v0.875h3.018v23.233
		l0.391-0.089h0.031l0.543-0.152l0.422-0.09l0.754-0.213c0.241-0.091,0.423-0.301,0.423-0.512V95.645h3.017V94.77z M251.482,94.77
		v18.525l-4.617-16.443c-0.573-2.054-1.931-2.082-2.896-2.082h-0.845v0.028v0.728v23.354h0.845V97.001
		c0.211,0.121,0.361,0.453,0.513,0.965l5.824,20.912h0.061l0.362-0.089l0.422-0.091l0.754-0.214c0.151-0.028,0.302-0.119,0.392-0.33
		l0.031-0.303v-1.358v-0.119V94.77H251.482z M233.693,95.645V94.77h-4.315h-1.146h-1.419v24.108h1.419h1.146h4.315v-0.845h-4.315
		v-11.588l3.259-0.813v-0.845l-3.259,0.814v-9.959h4.315V95.645z M215.08,94.77c-1.448,0-1.75,0.965-1.902,2.021l-0.332,2.144
		c-0.331,2.021-0.875,5.793-1.93,13.125l-0.272,1.812l-2.594-17.019c-0.333-1.961-1.208-2.082-2.898-2.082h-0.875v0.028v0.728
		v23.354h0.875V96.943c0.333,0.089,0.423,0.33,0.514,1.021l2.656,17.292l0.573,3.62h0.059l1.54-0.395
		c0.181-0.027,0.302-0.149,0.361-0.33l0.062-0.301l2.474-16.929c0.211-1.54,0.362-2.534,0.391-2.959
		c0.152-1.085,0.423-1.146,0.544-1.114v22.026l0.423-0.089l0.573-0.152l0.423-0.09l0.753-0.213c0.243-0.091,0.423-0.301,0.423-0.512
		V94.77H215.08z M194.86,95.645V94.77h-4.314H189.4h-1.418v24.108h1.418h1.146h4.314v-0.845h-4.314v-11.588l3.259-0.813v-0.845
		l-3.259,0.814v-9.959h4.314V95.645z M178.551,107.381l-4.466,1.086c-0.271,0.094-0.483,0.121-0.632,0.151v0.03v0.783v0.062
		c1.056-0.331,1.599-0.212,1.599,0.604v2.202v4.313c0,1.449-0.996,1.691-1.629,1.691c-0.665,0-1.66-0.242-1.66-1.691V97.062
		c0-1.448,0.996-1.722,1.66-1.722c0.633,0,1.629,0.272,1.629,1.722v5.279l0.784-0.15l1.509-0.394c0.211-0.06,0.302-0.21,0.302-0.481
		v-4.135c0-0.271-0.121-0.513-0.362-0.664l-0.484-0.33c-1.84-1.207-2.383-1.541-3.378-1.541c-0.965,0-1.569,0.334-3.41,1.541
		l-0.483,0.33c-0.242,0.151-0.362,0.394-0.362,0.664v19.312c0,0.333,0.151,0.543,0.362,0.664l0.664,0.452
		c0.483,0.334,0.875,0.576,1.207,0.785v0.03c0.845,0.482,1.327,0.604,2.022,0.604c0.633,0,1.176-0.122,1.991-0.604v-0.03h0.03
		c0.333-0.209,0.725-0.451,1.178-0.785l0.664-0.452c0.241-0.15,0.362-0.36,0.362-0.664v-2.533v-0.755v-2.415
		c0-0.873-0.03-1.447-1.026-1.81l-0.544-0.182l2.475-0.633v-0.785H178.551z M157.161,118.878h2.625l-3.228-20.215l-0.634-4.045
		h-0.061l-0.361,0.091l-0.423,0.089l-0.754,0.213l-0.785,0.183c-0.181,0.089-0.302,0.182-0.361,0.332l-0.061,0.328l-3.531,23.024
		h0.905l1.026-6.487l4.436-1.115L157.161,118.878z M151.67,111.484l2.143-14.394l1.99,13.339L151.67,111.484z M139.357,94.77v18.525
		l-4.616-16.443c-0.574-2.054-1.931-2.082-2.897-2.082h-0.845v0.028v0.728v23.354h0.845V97.001c0.21,0.121,0.362,0.453,0.513,0.965
		l5.824,20.912h0.06l0.361-0.089l0.423-0.091l0.754-0.214c0.151-0.028,0.302-0.119,0.393-0.33l0.029-0.303v-1.358v-0.119V94.77
		H139.357z M118.87,118.878h2.625l-3.229-20.215l-0.632-4.045h-0.061l-0.362,0.091l-0.423,0.089l-0.754,0.213l-0.784,0.183
		c-0.181,0.089-0.302,0.182-0.361,0.332l-0.062,0.328l-3.53,23.024h0.905l1.026-6.487l4.435-1.115L118.87,118.878z M113.378,111.484
		l2.143-14.394l1.991,13.339L113.378,111.484z M100.084,94.77c-1.448,0-1.75,0.965-1.9,2.021l-0.333,2.144
		c-0.332,2.021-0.875,5.793-1.931,13.125l-0.272,1.812l-2.594-17.019c-0.332-1.961-1.208-2.082-2.897-2.082h-0.875v0.028v0.728
		v23.354h0.875V96.943c0.332,0.089,0.422,0.33,0.512,1.021l2.656,17.292l0.573,3.62h0.061l1.539-0.395
		c0.181-0.027,0.302-0.149,0.362-0.33l0.061-0.301l2.474-16.929c0.211-1.54,0.362-2.534,0.392-2.959
		c0.151-1.085,0.422-1.146,0.543-1.114v22.026l0.422-0.089l0.573-0.152l0.422-0.09l0.755-0.213c0.242-0.091,0.422-0.301,0.422-0.512
		V94.77H100.084z M70.185,94.77v18.525l-4.617-16.443c-0.573-2.054-1.931-2.082-2.896-2.082h-0.846v0.028v0.728v23.354h0.846V97.001
		c0.21,0.121,0.362,0.453,0.512,0.965l5.823,20.912h0.061l0.362-0.089l0.423-0.091l0.753-0.214c0.151-0.028,0.302-0.119,0.393-0.33
		l0.03-0.303v-1.358v-0.119V94.77H70.185z M49.341,94.77v24.108l0.422-0.089l0.574-0.152l0.422-0.09l0.755-0.213
		c0.241-0.091,0.422-0.301,0.422-0.512V94.77H49.341z M37.228,118.878h2.625l-3.229-20.215l-0.634-4.045h-0.06l-0.362,0.091
		l-0.422,0.089l-0.755,0.213l-0.785,0.183c-0.18,0.089-0.301,0.182-0.361,0.332l-0.06,0.328l-3.531,23.024h0.905l1.026-6.487
		l4.436-1.115L37.228,118.878z M31.736,111.484l2.143-14.394l1.992,13.339L31.736,111.484z M21.459,100.501
		c0-2.474,0.031-3.59-1.086-4.465c-0.03-0.03-0.09-0.062-0.12-0.062l-0.242-0.182c-0.603-0.452-1.599-0.996-3.289-0.996
		l-2.052-0.029h-1.81v24.109l0.422-0.089l0.543-0.152l0.423-0.09l0.784-0.213c0.272-0.091,0.393-0.242,0.393-0.513v-8.6
		c1.056-0.24,2.685-0.635,3.439-0.875c1.599-0.484,2.595-0.664,2.595-2.203l-0.03-0.029c0.03-0.03,0.03-0.062,0.03-0.09V100.501z
		 M15.425,108.378V95.493h1.388c0.845,0,1.81,0.18,2.051,1.297v9.233c0,1.207-0.271,1.688-1.72,2.021L15.425,108.378z"/>
	<path d="M554.449,38.105c0-0.144,0.143-0.36,0.288-0.36c1.443-0.073,2.6-0.145,3.972-0.434c1.084-0.216,3.032-1.372,3.537-2.238
		c0.073-0.071,0.145-0.793,0-0.867c-0.577,0.291-3.826,0.651-6.932,0.651c-0.144,0-0.218-0.216-0.218-0.36
		c0.649-3.395,1.084-5.488,1.518-7.365c0.506-2.166,1.083-3.321,1.519-3.971c0.07-0.073-0.146-0.723-0.364-0.65
		c-3.896,1.3-8.013,4.405-8.444,5.126c-0.65,1.083-1.085,2.96-1.95,6.787c0,0.144-0.146,0.361-0.361,0.361h-1.877
		c-0.506,0-2.598,1.805-3.104,2.527c-0.071,0.073-0.071,0.361,0,0.434c1.013,0.144,2.527,0.144,4.477,0.144
		c0.072,0,0.146,0.144,0.146,0.288c-1.011,5.126-2.959,15.452-3.32,18.484c-0.578,4.62,0.288,7.364,2.599,7.364
		c4.333,0,10.397-5.198,12.491-8.447c0.073-0.217,0.289-1.3,0.289-1.661c0-0.145-0.216-0.217-0.289-0.217
		c-2.167,2.745-4.333,4.26-5.632,4.26c-1.011,0-1.156-1.299-1.011-3.105C552.066,51.896,553.294,44.964,554.449,38.105
		 M509.979,42.654c1.661-1.516,2.889-2.311,3.468-2.311c0.575,0,0.505,0.938,0.433,1.444c-0.29,3.033-3.178,15.884-3.898,20.073
		c-0.289,1.732,0,2.164,0.506,2.164c0.865,0,6.787-2.382,7.726-3.249c-0.145-1.226-0.29-2.238,0.289-4.837
		c1.228-5.632,2.165-7.582,3.032-9.025c2.743-4.621,5.703-7.581,7.508-7.581c0.866,0,1.013,1.155,0.434,3.827
		c-1.153,5.847-2.237,10.107-2.959,14.079c-0.508,2.888-0.793,6.786,1.518,6.786c2.524,0,7.65-2.67,11.045-6.931
		c0.073-0.144,0.29-1.444,0.218-1.733c-0.073-0.145-0.145-0.145-0.218-0.145c-2.165,2.384-3.246,2.672-3.68,2.672
		c-0.361,0-0.578-0.505-0.507-1.228c0.146-2.527,1.443-8.664,2.312-12.997c1.227-6.209,1.152-9.892-1.662-9.892
		c-1.443,0-2.599,0.432-4.114,1.228c-4.116,2.166-8.159,6.715-10.253,9.675c-0.074,0-0.074-0.073-0.146-0.073l0.65-3.321
		c0.867-4.26,0.94-7.509-0.794-7.509c-2.167,0-7.077,2.96-10.829,7.147c-0.072,0.073-0.361,1.372-0.291,1.589
		C509.762,42.582,509.907,42.726,509.979,42.654 M503.315,33.845c-3.825,0-9.676,2.6-12.128,5.054
		c-3.253,3.176-5.704,9.17-5.704,15.451c0,4.622,1.152,9.675,7.29,9.675c4.838,0,11.047-3.538,13.791-7.653
		c0.071-0.288,0.29-1.372,0.29-1.66c0-0.145-0.146-0.289-0.219-0.289c-3.465,3.898-6.209,4.404-8.229,4.404
		c-3.974,0-5.058-3.321-5.058-8.158c0-0.433,0-0.361,0.074-0.794c0-0.073,0.216-0.361,0.287-0.361
		c2.384-0.867,5.417-2.166,7.943-3.61c3.896-2.238,6.138-4.693,6.138-7.581C507.793,36.083,506.349,33.845,503.315,33.845
		 M498.479,36.3c1.084,0,2.238,1.01,2.238,3.176c0,2.816-0.867,4.693-2.31,5.921c-1.229,1.011-3.105,2.022-4.695,2.455
		c-0.144,0.073-0.215-0.144-0.215-0.288C494.22,40.704,496.385,36.3,498.479,36.3 M436.596,42.726
		c1.732-1.444,3.031-2.31,3.608-2.31c0.578,0,0.434,1.443,0.29,1.949c-0.579,3.754-2.166,10.902-3.321,16.461
		c-0.437,2.238-0.65,3.322-0.65,4.044c0,0.434,0.145,1.154,0.65,1.154c0.721,0,6.786-2.526,7.725-3.249
		c-0.576-1.372-0.216-2.743,0.649-6.57c0.867-3.754,2.312-6.209,3.105-7.509c1.661-2.815,5.414-7.148,7.509-7.148
		c0.938,0,1.084,1.228,0.938,2.888c-0.646,6.282-3.682,17.473-3.896,20.434c-0.072,0.795,0.577,1.154,0.649,1.154
		c1.371,0,6.932-2.526,7.726-3.176c-0.361-1.155-0.144-2.744,0.36-4.91c0.722-3.105,1.518-6.138,3.395-9.458
		c2.743-4.838,5.488-6.932,7.005-6.932c0.864,0,1.01,1.083,0.648,2.888l-2.816,14.079c-0.867,3.9-0.938,7.509,1.298,7.509
		c2.097,0,6.86-1.949,10.979-6.931c0.07-0.216,0.217-1.228,0.217-1.661c0-0.144-0.073-0.144-0.217-0.217
		c-1.733,1.95-2.816,2.528-3.538,2.528c-0.649,0-0.724-0.793-0.649-1.516c0.288-3.105,1.875-9.747,2.671-14.512
		c0.505-3.105,0.939-7.943-1.878-7.943c-4.691,0-11.479,6.787-14.296,10.687c-0.071,0-0.145,0.072-0.289,0
		c0.289-1.734,0.65-3.827,0.723-5.271c0.29-3.755-0.723-5.416-2.452-5.416c-4.407,0-11.121,6.209-14.585,10.758l-0.363,0.145
		c0.29-1.3,0.434-2.239,0.65-3.466c0.938-4.982,0.721-7.437-0.724-7.437c-1.731,0-6.062,1.949-10.977,7.22
		c-0.07,0.145-0.358,1.155-0.288,1.517C436.448,42.582,436.521,42.726,436.596,42.726 M430.038,33.845
		c-3.824,0-9.676,2.6-12.13,5.054c-3.249,3.176-5.703,9.17-5.703,15.451c0,4.622,1.154,9.675,7.293,9.675
		c4.837,0,11.046-3.538,13.789-7.653c0.073-0.288,0.29-1.372,0.29-1.66c0-0.145-0.145-0.289-0.217-0.289
		c-3.466,3.898-6.209,4.404-8.232,4.404c-3.97,0-5.053-3.321-5.053-8.158c0-0.433,0-0.361,0.071-0.794
		c0-0.073,0.216-0.361,0.29-0.361c2.382-0.867,5.415-2.166,7.941-3.61c3.898-2.238,6.136-4.693,6.136-7.581
		C434.515,36.083,433.072,33.845,430.038,33.845 M425.2,36.3c1.086,0,2.24,1.01,2.24,3.176c0,2.816-0.869,4.693-2.312,5.921
		c-1.226,1.011-3.104,2.022-4.69,2.455c-0.146,0.073-0.218-0.144-0.218-0.288C420.941,40.704,423.108,36.3,425.2,36.3
		 M405.691,42.221c0.362,6.209-3.609,11.841-7.364,15.018c-0.145,0.144-0.434,0.072-0.505,0c-0.288-0.434-0.435-1.229-0.435-3.827
		c0-2.816,0.072-9.748,0.072-12.563c0-3.61-0.217-7.076-1.949-7.076c-1.3,0-2.96,1.011-4.909,2.382
		c-2.383,1.733-3.973,3.394-5.054,4.693c-0.073,0.145,0,0.794,0.146,1.083c0.07,0.073,0.07,0.144,0.144,0.144
		c1.372-1.083,2.454-1.805,3.104-1.805c0.648,0,0.648,1.372,0.648,2.166c0,2.022-0.146,9.892-0.072,12.853
		c0.146,6.425,0.506,7.22,1.229,8.666c0.215,0.07,1.155,0.215,1.517,0.07c3.395-1.732,9.169-6.57,13.862-12.418
		c3.32-4.187,5.271-8.447,5.271-13.357c0-2.454-0.797-4.477-1.732-4.477c-1.155,0-4.188,1.444-5.704,2.527
		c-0.362,0.289-0.435,0.794-0.288,0.938C405.114,39.044,405.691,41.21,405.691,42.221 M364.314,54.784
		c0-9.604,2.599-19.062,6.643-19.062c2.454,0,3.32,3.249,3.32,7.003c0,7.798-2.166,19.423-6.644,19.423
		C365.902,62.149,364.314,60.343,364.314,54.784 M374.131,33.773c-3.104,0-7.29,1.228-10.757,3.61
		c-5.126,3.537-7.437,10.614-7.437,16.679c0,6.644,2.961,9.963,8.737,9.963c3.104,0,6.209-0.865,8.808-2.237
		c6.787-3.538,9.313-11.625,9.313-18.267C382.797,38.105,380.561,33.773,374.131,33.773 M306.299,20.632
		c1.516,0.217,2.527,0.361,3.9,0.723c1.66,0.433,2.092,2.743,1.876,3.61c-1.011,4.043-6.354,25.271-8.521,31.407
		c-1.228,3.033-1.949,3.972-3.754,4.693c-0.867,0.29-1.804,0.506-3.468,0.723c-0.287,0.143-0.287,1.083-0.144,1.299
		c2.526,0,4.91-0.216,7.58-0.216c3.033,0,6.715,0.216,8.377,0.216c0.218,0,0.36-1.156,0.218-1.299
		c-0.939-0.145-2.673-0.361-3.757-0.723c-1.659-0.359-2.452-1.588-1.948-4.693c0.868-5.053,4.621-20.649,6.786-28.664h0.218
		c1.59,6.643,6.644,30.036,7.437,35.379c0.217,0.073,1.66,0.144,1.951,0c2.959-6.354,15.161-29.17,18.698-36.1
		c0.073,0,0.218-0.073,0.288-0.073c-0.215,4.332-2.311,23.826-3.104,29.819c-0.433,3.249-1.011,4.115-2.526,4.477
		c-0.939,0.216-1.445,0.361-2.962,0.578c-0.143,0.143-0.288,1.083-0.07,1.299c1.805,0,6.282-0.216,9.963-0.216
		c5.775,0,8.665,0.216,9.964,0.216c0.218-0.216,0.289-1.082,0.218-1.299c-1.302-0.145-2.383-0.361-3.321-0.65
		c-1.517-0.578-1.806-2.094-1.806-4.187c0.217-5.416,2.021-27.221,2.672-32.204c0.287-2.166,1.013-3.249,2.6-3.537
		c0.938-0.217,1.877-0.361,3.32-0.578c0.145-0.289,0.218-1.083,0.072-1.3c-3.681,0-9.097,0.361-13.935,0.217
		c-0.36,1.011-1.013,2.744-1.877,4.404c-2.743,5.633-11.192,20.579-13.285,24.044h-0.146c-0.938-3.321-4.98-18.268-6.281-24.261
		c-0.286-1.515-0.721-3.321-0.721-4.188c-4.767,0.073-11.48-0.144-14.152-0.217C306.443,19.405,306.227,20.343,306.299,20.632
		 M268.321,37.6c1.372,0,3.538,0.072,4.982,0.072c0.216,0,0.361,0.361,0.288,0.578c-1.01,6.354-3.031,20.938-4.981,31.986
		c-1.661,9.529-3.25,10.83-5.849,10.83c-3.61,0-8.087-3.609-9.53-5.631c-0.216,0-0.434,0.358-0.65,0.72
		c-0.505,1.012-0.578,3.468,0.144,5.345c0.65,1.732,2.816,3.609,5.776,3.609c4.91,0,15.885-7.221,19.423-22.671
		c1.661-7.438,2.96-16.462,4.115-24.405c0-0.144,0.145-0.217,0.289-0.361c0.288,0,1.588-0.145,2.021-0.216
		c1.806-0.145,3.177-0.722,4.549-1.95c0.216-0.216,0.505-0.939,0.433-1.227c-1.732,0.288-4.476,0.505-6.498,0.505
		c-0.217,0-0.289-0.288-0.289-0.433c0.144-1.445,0.505-4.405,1.371-9.531c1.878-10.758,2.888-12.274,4.477-12.347
		c1.588,0,2.96,0.939,4.836,2.455c0.072,0,0.649,0.073,0.793,0c1.229-0.649,4.623-4.549,4.623-5.486c0-1.012-1.371-1.806-3.61-1.806
		c-2.743,0-7.581,2.672-10.469,5.56c-4.837,4.766-8.086,9.386-10.396,21.156c0,0.145-0.073,0.289-0.362,0.433h-2.887
		c-0.434,0.144-2.455,1.661-2.672,2.383C268.177,37.311,268.394,37.455,268.321,37.6 M247.37,54.784
		c0-9.604,2.599-19.062,6.642-19.062c2.455,0,3.322,3.249,3.322,7.003c0,7.798-2.167,19.423-6.644,19.423
		C248.958,62.149,247.37,60.343,247.37,54.784 M257.189,33.773c-3.105,0-7.293,1.228-10.759,3.61
		c-5.126,3.537-7.437,10.614-7.437,16.679c0,6.644,2.96,9.963,8.736,9.963c3.105,0,6.209-0.865,8.809-2.237
		c6.787-3.538,9.314-11.625,9.314-18.267C265.853,38.105,263.614,33.773,257.189,33.773 M179.066,42.726
		c1.732-1.444,3.032-2.31,3.61-2.31c0.578,0,0.433,1.443,0.289,1.949c-0.578,3.754-2.167,10.902-3.322,16.461
		c-0.433,2.238-0.649,3.322-0.649,4.044c0,0.434,0.144,1.154,0.649,1.154c0.722,0,6.788-2.526,7.726-3.249
		c-0.578-1.372-0.217-2.743,0.65-6.57c0.867-3.754,2.311-6.209,3.104-7.509c1.661-2.815,5.415-7.148,7.508-7.148
		c0.939,0,1.083,1.228,0.939,2.888c-0.65,6.282-3.683,17.473-3.899,20.434c-0.072,0.795,0.578,1.154,0.65,1.154
		c1.372,0,6.931-2.526,7.725-3.176c-0.361-1.155-0.145-2.744,0.362-4.91c0.721-3.105,1.516-6.138,3.393-9.458
		c2.743-4.838,5.487-6.932,7.002-6.932c0.867,0,1.012,1.083,0.65,2.888l-2.814,14.079c-0.867,3.9-0.939,7.509,1.299,7.509
		c2.094,0,6.859-1.949,10.975-6.931c0.071-0.216,0.216-1.228,0.216-1.661c0-0.144-0.072-0.144-0.216-0.217
		c-1.733,1.95-2.816,2.528-3.539,2.528c-0.65,0-0.721-0.793-0.65-1.516c0.288-3.105,1.878-9.747,2.672-14.512
		c0.505-3.105,0.938-7.943-1.877-7.943c-4.693,0-11.481,6.787-14.296,10.687c-0.073,0-0.145,0.072-0.289,0
		c0.289-1.734,0.65-3.827,0.722-5.271c0.289-3.755-0.722-5.416-2.455-5.416c-4.404,0-11.119,6.209-14.585,10.758l-0.361,0.145
		c0.289-1.3,0.434-2.239,0.65-3.466c0.938-4.982,0.722-7.437-0.722-7.437c-1.733,0-6.065,1.949-10.975,7.22
		c-0.073,0.145-0.362,1.155-0.289,1.517C178.922,42.582,178.994,42.726,179.066,42.726 M157.312,54.784
		c0-9.604,2.6-19.062,6.643-19.062c2.454,0,3.322,3.249,3.322,7.003c0,7.798-2.167,19.423-6.643,19.423
		C158.899,62.149,157.312,60.343,157.312,54.784 M167.131,33.773c-3.105,0-7.292,1.228-10.758,3.61
		c-5.126,3.537-7.437,10.614-7.437,16.679c0,6.644,2.96,9.963,8.737,9.963c3.104,0,6.209-0.865,8.809-2.237
		c6.788-3.538,9.314-11.625,9.314-18.267C175.795,38.105,173.557,33.773,167.131,33.773 M126.662,58.177
		c-1.588,0-2.167-2.382-2.167-4.765c0-8.303,3.034-17.546,7.438-17.546c1.588,0,3.177,0.65,3.97,1.589
		c0.29,0.361,0.578,1.083,0.578,2.166c0,0.578-1.083,6.065-1.517,8.087c-0.433,1.949-1.01,3.177-1.876,4.621
		C131.139,55.65,128.539,58.177,126.662,58.177 M115.904,55.867c0,5.271,1.733,8.158,4.404,8.158c4.332,0,10.036-5.342,13.213-9.675
		c0.144-0.144,0.289,0,0.289,0.073c-0.216,1.588-0.433,2.599-0.722,4.765c-0.65,3.466-0.073,5.704,1.227,5.704
		c2.094,0,7.581-2.887,11.986-8.303c0.073-0.144,0.289-1.228,0.217-1.517c0-0.145-0.073-0.145-0.144-0.217
		c-2.095,2.095-3.395,2.745-4.044,2.745c-0.506,0-0.65-0.579-0.65-1.373c0.072-3.465,4.333-25.127,6.499-37.473
		c0.505-2.96,0.36-4.476-0.578-4.549c-2.383,0-9.17,2.888-12.78,5.054c-0.217,0.216-0.289,1.227-0.217,1.444
		c1.805-0.723,3.539-1.082,4.26-1.011c0.649,0.073,0.794,0.65,0.649,1.879c-0.289,2.743-0.866,6.497-2.021,12.13
		c-0.073,0.215-0.218,0.36-0.289,0.36c-1.011-0.145-1.95-0.145-2.455-0.145c-4.549,0-10.397,2.96-12.563,5.127
		C117.637,43.665,115.904,50.885,115.904,55.867 M109.79,33.845c-3.828,0-9.675,2.6-12.13,5.054
		c-3.25,3.176-5.705,9.17-5.705,15.451c0,4.622,1.155,9.675,7.292,9.675c4.838,0,11.048-3.538,13.792-7.653
		c0.071-0.288,0.288-1.372,0.288-1.66c0-0.145-0.144-0.289-0.217-0.289c-3.465,3.898-6.208,4.404-8.23,4.404
		c-3.971,0-5.055-3.321-5.055-8.158c0-0.433,0-0.361,0.072-0.794c0-0.073,0.217-0.361,0.289-0.361
		c2.383-0.867,5.415-2.166,7.942-3.61c3.899-2.238,6.137-4.693,6.137-7.581C114.266,36.083,112.821,33.845,109.79,33.845
		 M104.952,36.3c1.083,0,2.237,1.01,2.237,3.176c0,2.816-0.866,4.693-2.31,5.921c-1.228,1.011-3.105,2.022-4.694,2.455
		c-0.144,0.073-0.216-0.144-0.216-0.288C100.692,40.704,102.858,36.3,104.952,36.3 M85.675,33.845c-3.827,0-9.676,2.6-12.131,5.054
		c-3.248,3.176-5.704,9.17-5.704,15.451c0,4.622,1.155,9.675,7.292,9.675c4.838,0,11.047-3.538,13.792-7.653
		c0.071-0.288,0.288-1.372,0.288-1.66c0-0.145-0.145-0.289-0.217-0.289c-3.465,3.898-6.209,4.404-8.23,4.404
		c-3.971,0-5.054-3.321-5.054-8.158c0-0.433,0-0.361,0.072-0.794c0-0.073,0.217-0.361,0.289-0.361
		c2.383-0.867,5.415-2.166,7.942-3.61c3.899-2.238,6.137-4.693,6.137-7.581C90.15,36.083,88.707,33.845,85.675,33.845 M80.836,36.3
		c1.083,0,2.239,1.01,2.239,3.176c0,2.816-0.867,4.693-2.311,5.921c-1.228,1.011-3.105,2.022-4.693,2.455
		c-0.145,0.073-0.216-0.144-0.216-0.288C76.577,40.704,78.743,36.3,80.836,36.3 M56.786,45.181h-0.145
		c0.29-1.516,0.723-3.465,0.939-4.765c0.434-2.455,1.155-6.643-0.649-6.643c-1.95,0-6.788,3.033-10.686,6.931
		c-0.072,0.145-0.361,1.228-0.217,1.444c0.073,0.073,0.073,0.145,0.145,0.145c1.443-1.299,3.033-2.094,3.61-2.094
		c0.578,0,0.434,1.083,0.288,2.527c-0.505,4.26-3.393,16.534-3.898,20.073c-0.145,0.867,0.434,1.226,0.649,1.226
		c1.011-0.07,7.365-2.599,7.654-3.249c-0.433-1.517,0.145-4.187,0.578-5.992c0.794-3.466,1.732-6.209,2.672-8.303
		c1.876-4.188,3.104-5.343,4.043-5.343c1.372,0,2.455,1.083,3.682,2.238c0.145,0.072,0.434,0.072,0.65-0.145
		c0.939-0.938,3.609-4.692,3.609-6.715v-0.794c-0.432-1.083-1.732-1.949-2.958-1.949c-1.661,0-3.322,1.228-5.2,3.61
		C60.324,38.899,58.158,42.51,56.786,45.181 M10.794,61.788c-0.144,0.073-0.217,1.155-0.144,1.299c1.95,0,5.848-0.216,10.396-0.216
		c3.755,0,7.943,0.216,10.398,0.216c0.217-0.144,0.361-1.082,0.288-1.299c-1.227-0.145-2.743-0.289-3.537-0.506
		c-1.517-0.433-2.31-0.576-1.806-4.62c0.506-4.188,1.444-9.891,2.022-13.501c0-0.218,0.361-0.65,0.649-0.65
		c2.239,0,8.376,0.145,9.819,0.289c1.3,0.144,2.022,0.794,2.311,2.527c0.145,0.865,0.217,1.732,0.291,2.815
		c0.143,0.29,1.226,0.145,1.299-0.071c0.216-1.444,0.504-4.693,0.793-6.354c0.577-3.25,1.155-5.416,1.516-7.005
		c-0.072-0.145-1.228-0.36-1.371-0.071c-0.434,1.011-0.794,1.949-1.155,2.671c-0.65,1.155-1.373,2.816-4.188,2.888
		c-2.237,0.145-6.931,0.145-8.953,0.145c-0.144,0-0.432-0.145-0.361-0.433c0.506-4.044,2.166-13.791,2.816-17.184
		c0-0.29,0.362-0.939,0.794-1.011c1.661-0.217,7.942-0.144,10.036,0.072c2.383,0.29,2.817,1.877,3.033,3.177
		c0.217,1.732,0.361,2.744,0.361,5.054c0.144,0.144,1.083,0.144,1.228,0c0.65-3.827,2.167-8.446,3.033-10.325
		c0.072-0.216-0.072-0.433-0.217-0.433c-1.011,0.145-2.527,0.289-6.931,0.289h-15.74c-5.127,0-8.592-0.289-9.603-0.289
		c-0.144,0.145-0.289,1.011-0.144,1.227c0.866,0.072,2.021,0.217,2.96,0.434c1.515,0.433,2.021,1.155,1.659,4.043
		c-0.577,5.126-3.898,25.921-5.27,32.275c-0.433,2.021-0.867,3.537-2.6,3.971C13.682,61.499,11.733,61.643,10.794,61.788"/>
	<path d="M464.192,81.818c33.652,0,60.166-2.153,76.891-4.42c0.409-0.037,1.226-0.557,1.226-0.633c0-0.072-0.613-0.072-0.613-0.072
		c-1.224,0.148-22.026,2.785-55.271,2.785c-20.395,0-43.848-0.742-64.243-1.412c-20.806-0.668-53.231-1.559-68.938-1.559
		c-42.627,0-63.838,3.787-64.45,3.9c-0.204,0.035-1.02,0.482-1.02,0.556c0,0.037,0.408,0.075,0.612,0.075
		c0.816-0.148,19.578-2.342,47.112-2.342c19.784,0,44.462,0.894,65.062,1.636C421.565,81.04,444.613,81.818,464.192,81.818"/>
	<path d="M89.114,81.818c-28.62,0-51.167-2.153-65.39-4.42c-0.346-0.037-1.041-0.557-1.041-0.633c0-0.072,0.521-0.072,0.521-0.072
		c1.041,0.148,18.732,2.785,47.004,2.785c17.344,0,37.291-0.742,54.635-1.412c17.691-0.668,45.27-1.559,58.625-1.559
		c36.25,0,54.288,3.787,54.808,3.9c0.173,0.035,0.867,0.482,0.867,0.556c0,0.037-0.347,0.075-0.52,0.075
		c-0.694-0.148-16.651-2.342-40.067-2.342c-16.824,0-37.812,0.894-55.329,1.636C125.363,81.04,105.764,81.818,89.114,81.818"/>
	<path d="M573.389,41.567h0.801v-3.65c0-0.146-0.006-0.374-0.014-0.685c-0.008-0.31-0.012-0.54-0.012-0.692v-0.19l1.78,5.216h0.833
		l1.764-5.216c0,0.334-0.002,0.647-0.008,0.939c-0.007,0.292-0.009,0.5-0.009,0.627v3.65h0.802v-6.184h-1.194l-1.766,5.228
		l-1.776-5.228h-1.201V41.567L573.389,41.567z M567.023,35.383v0.736h2.084v5.448h0.846V36.12h2.083v-0.736L567.023,35.383
		L567.023,35.383z"/>
</g>
</svg>
